<svg xmlns="http://www.w3.org/2000/svg" width="379.6952819824219" height="371.0563049316406" viewBox="-92.2247314453125 -82.46755981445312 379.6952819824219 371.0563049316406"><title>Neo4j Graph Visualization</title><desc>Created using Neo4j (http://www.neo4j.com/)</desc><g class="layer relationships"><g class="relationship" transform="translate(150.91306091986013 259.588757952234) rotate(306.3300004536576)"><path class="outline" fill="#A5ABB6" stroke="none" d="M 24.018736134675446,6.953439040707552 L 24.277555179777966,5.987513214418485 A 100.09897331998512 100.09897331998512 0 0 0 25.479999814030123,6.301719756643124 L 25.23319332604353,7.2707845416228025 A 101.09897331998512 101.09897331998512 0 0 1 24.018736134675446,6.953439040707552 Z M 71.92521684908353,8.033157117451708 L 71.71017865171159,7.056551478684952 A 100.09897331998512 100.09897331998512 0 0 0 72.92224012481392,6.7817682276678735 L 72.2407996414456,3.860186658102043 L 79.85283720102892,5.678670694736076 L 73.8308274359717,10.677210320422313 L 73.14938695260338,7.7556287508564825 A 101.09897331998512 101.09897331998512 0 0 1 71.92521684908353,8.033157117451708"/><text text-anchor="middle" pointer-events="none" font-size="8px" fill="#000000" x="48.54274658918485" y="12.884896196850093" font-family="sans-serif">DIRECTED</text></g><g class="relationship" transform="translate(150.91306091986013 259.588757952234) rotate(306.3300004536576)"><path class="outline" fill="#A5ABB6" stroke="none" d="M 24.018736134675446,-6.953439040707552 L 24.277555179777966,-5.987513214418485 A 100.09897331998512 100.09897331998512 0 0 1 30.87484157508875,-7.518061676692 L 30.681930162966854,-8.49927785423553 A 101.09897331998512 101.09897331998512 0 0 0 24.018736134675446,-6.953439040707552 Z M 66.43927822311265,-9.083112511390041 L 66.27850307556028,-8.096121451689143 A 100.09897331998512 100.09897331998512 0 0 1 72.92224012481392,-6.7817682276678735 L 72.2407996414456,-3.860186658102043 L 79.85283720102892,-5.678670694736076 L 73.8308274359717,-10.677210320422313 L 73.14938695260338,-7.7556287508564825 A 101.09897331998512 101.09897331998512 0 0 0 66.43927822311265,-9.083112511390041"/><text text-anchor="middle" pointer-events="none" font-size="8px" fill="#000000" x="48.54274658918485" y="-6.884896196850093" font-family="sans-serif">WROTE</text></g><g class="relationship" transform="translate(258.47054999746615 81.97374511864913) rotate(476.0692201788496)"><path class="outline" fill="#A5ABB6" stroke="none" d="M 24.018736134675446,6.953439040707552 L 24.277555179777966,5.987513214418485 A 100.25865466057164 100.25865466057164 0 0 0 25.518943191680346,6.311643248684987 L 25.27250600045473,7.28080201317141 A 101.25865466057164 101.25865466057164 0 0 1 24.018736134675446,6.953439040707552 Z M 71.96551603725493,8.042643285596839 L 71.75082711345047,7.06596080597734 A 100.25865466057164 100.25865466057164 0 0 0 73.00212853033402,6.78250139210328 L 72.32061956240048,3.860935796976898 L 79.93269974695116,5.679241399446103 L 73.91080715424539,10.677922185605123 L 73.22929818631185,7.756356590478741 A 101.25865466057164 101.25865466057164 0 0 1 71.96551603725493,8.042643285596839"/><text text-anchor="middle" pointer-events="none" font-size="8px" fill="#000000" x="48.582649066203906" y="12.890335198402198" transform="rotate(180 48.582649066203906 9.890335198402198)" font-family="sans-serif">DIRECTED</text></g><g class="relationship" transform="translate(258.47054999746615 81.97374511864913) rotate(476.0692201788496)"><path class="outline" fill="#A5ABB6" stroke="none" d="M 24.018736134675446,-6.953439040707552 L 24.277555179777966,-5.987513214418485 A 100.25865466057164 100.25865466057164 0 0 1 30.914239781175496,-7.526175612269171 L 30.721616364010195,-8.507448366991099 A 101.25865466057164 101.25865466057164 0 0 0 24.018736134675446,-6.953439040707552 Z M 66.47928895073971,-9.09086911371476 L 66.31878035458139,-8.103834671276573 A 100.25865466057164 100.25865466057164 0 0 1 73.00212853033402,-6.78250139210328 L 72.32061956240048,-3.860935796976898 L 79.93269974695116,-5.679241399446103 L 73.91080715424539,-10.677922185605123 L 73.22929818631185,-7.756356590478741 A 101.25865466057164 101.25865466057164 0 0 0 66.47928895073971,-9.09086911371476"/><text text-anchor="middle" pointer-events="none" font-size="8px" fill="#000000" x="48.58264906620391" y="-6.890335198402198" transform="rotate(180 48.58264906620391 -9.890335198402198)" font-family="sans-serif">WROTE</text></g><g class="relationship" transform="translate(144.25562772155263 -53.46755753996415) rotate(535.1275117607926)"><path class="outline" fill="#A5ABB6" stroke="none" d="M 21.40063509461097,12.933012701892217 L 21.90063509461097,12.06698729810778 A 56.681664334240196 56.681664334240196 0 0 0 23.842118273322637,13.137828953957559 L 23.376370675779686,14.022746563333122 A 57.681664334240196 57.681664334240196 0 0 1 21.40063509461097,12.933012701892217 Z M 73.81851298885303,15.622338759712989 L 73.40976878912774,14.70968976957991 A 56.681664334240196 56.681664334240196 0 0 0 75.41519872397573,13.764010351627444 L 74.08282439669063,11.076115515144526 L 81.90901573031672,11.10311939404266 L 77.19169782702255,17.34787013360467 L 75.85932349973744,14.65997529712175 A 57.681664334240196 57.681664334240196 0 0 1 73.81851298885303,15.622338759712989"/><text text-anchor="middle" pointer-events="none" font-size="8px" fill="#000000" x="48.42906627976174" y="23.13216070243616" transform="rotate(180 48.42906627976174 20.13216070243616)" font-family="sans-serif">PRODUCED</text></g><g class="relationship" transform="translate(144.25562772155263 -53.46755753996415) rotate(535.1275117607926)"><path class="outline" fill="#A5ABB6" stroke="none" d="M 25 0.5 L 25.208757183837214 0.5 L 25.208757183837214 -0.5 L 25 -0.5 Z M 72.0993821838372 0.5 L 72.30813936767443 0.5 L 72.30813936767443 3.5 L 79.30813936767443 0 L 72.30813936767443 -3.5 L 72.30813936767443 -0.5 L 72.0993821838372 -0.5 Z"/><text text-anchor="middle" pointer-events="none" font-size="8px" fill="#000000" x="48.654069683837214" y="3" transform="rotate(180 48.654069683837214 0)" font-family="sans-serif">DIRECTED</text></g><g class="relationship" transform="translate(144.25562772155263 -53.46755753996415) rotate(535.1275117607926)"><path class="outline" fill="#A5ABB6" stroke="none" d="M 21.40063509461097,-12.933012701892217 L 21.90063509461097,-12.06698729810778 A 56.681664334240196 56.681664334240196 0 0 1 31.098272788959093,-16.33041326925329 L 30.760541095692492,-17.27165569464819 A 57.681664334240196 57.681664334240196 0 0 0 21.40063509461097,-12.933012701892217 Z M 66.24333083573957,-18.39686550872971 L 65.96591402125092,-17.436115847767518 A 56.681664334240196 56.681664334240196 0 0 1 75.41519872397573,-13.764010351627444 L 74.08282439669063,-11.076115515144526 L 81.90901573031672,-11.10311939404266 L 77.19169782702255,-17.34787013360467 L 75.85932349973744,-14.65997529712175 A 57.681664334240196 57.681664334240196 0 0 0 66.24333083573957,-18.39686550872971"/><text text-anchor="middle" pointer-events="none" font-size="8px" fill="#000000" x="48.429066279761734" y="-17.13216070243616" transform="rotate(180 48.429066279761734 -20.13216070243616)" font-family="sans-serif">WROTE</text></g><g class="relationship" transform="translate(-63.22472622375742 97.78826352087606) rotate(432.9006907396126)"><path class="outline" fill="#A5ABB6" stroke="none" d="M 21.40063509461097,12.933012701892217 L 21.90063509461097,12.06698729810778 A 57.57760765823493 57.57760765823493 0 0 0 31.5187657241172,16.495730144607897 L 31.1858120989266,17.438673347283668 A 58.57760765823493 58.57760765823493 0 0 1 21.40063509461097,12.933012701892217 Z M 66.68196549695875,18.555558681634054 L 66.40895116242777,17.593548716435876 A 57.57760765823493 57.57760765823493 0 0 0 76.28648073106612,13.778236196163547 L 74.95278298735603,11.090997775698664 L 82.77898666943587,11.114147864250803 L 78.06474438934625,17.361220756783393 L 76.73104664563616,14.67398233631851 A 58.57760765823493 58.57760765823493 0 0 1 66.68196549695875,18.555558681634054"/><text text-anchor="middle" pointer-events="none" font-size="8px" fill="#000000" x="48.86293278866324" y="23.252195665370472" font-family="sans-serif">WROTE</text></g><g class="relationship" transform="translate(-63.22472622375742 97.78826352087606) rotate(432.9006907396126)"><path class="outline" fill="#A5ABB6" stroke="none" d="M 25 0.5 L 25.64100758665495 0.5 L 25.64100758665495 -0.5 L 25 -0.5 Z M 72.53163258665495 0.5 L 73.1726401733099 0.5 L 73.1726401733099 3.5 L 80.1726401733099 0 L 73.1726401733099 -3.5 L 73.1726401733099 -0.5 L 72.53163258665495 -0.5 Z"/><text text-anchor="middle" pointer-events="none" font-size="8px" fill="#000000" x="49.08632008665495" y="3" font-family="sans-serif">DIRECTED</text></g><g class="relationship" transform="translate(-63.22472622375742 97.78826352087606) rotate(432.9006907396126)"><path class="outline" fill="#A5ABB6" stroke="none" d="M 21.40063509461097,-12.933012701892217 L 21.90063509461097,-12.06698729810778 A 57.57760765823493 57.57760765823493 0 0 1 24.241937718869366,-13.347334440296223 L 23.782601142020876,-14.235596737801359 A 58.57760765823493 58.57760765823493 0 0 0 21.40063509461097,-12.933012701892217 Z M 74.27190198161708,-15.824240978122788 L 73.86931703490026,-14.908858347373751 A 57.57760765823493 57.57760765823493 0 0 1 76.28648073106612,-13.778236196163547 L 74.95278298735603,-11.090997775698664 L 82.77898666943587,-11.114147864250803 L 78.06474438934625,-17.361220756783393 L 76.73104664563616,-14.67398233631851 A 58.57760765823493 58.57760765823493 0 0 0 74.27190198161708,-15.824240978122788"/><text text-anchor="middle" pointer-events="none" font-size="8px" fill="#000000" x="48.86293278866324" y="-17.252195665370472" font-family="sans-serif">PRODUCED</text></g></g><g class="layer nodes"><g class="node" transform="translate(150.91306091986013,259.588757952234)"><circle class="outline" cx="0" cy="0" r="25" fill="#F79767" stroke="#f36924" stroke-width="2px"/><text text-anchor="middle" pointer-events="none" font-family="sans-serif" dy="1.5625" font-size="25" fill="#FFFFFF"/><text text-anchor="middle" pointer-events="none" font-family="sans-serif" dy="1.5625" font-size="25" fill="#FFFFFF"/><text text-anchor="middle" pointer-events="none" x="0" y="0" font-size="10px" fill="#FFFFFF" font-family="sans-serif"> Lilly</text><text text-anchor="middle" pointer-events="none" x="0" y="10" font-size="10px" fill="#FFFFFF" font-family="sans-serif"> Wacho…</text></g><g class="node" transform="translate(212.644412075924,175.64386600891237)"><circle class="outline" cx="0" cy="0" r="25" fill="#57C7E3" stroke="#23b3d7" stroke-width="2px"/><text text-anchor="middle" pointer-events="none" font-family="sans-serif" dy="1.5625" font-size="25" fill="#2A2C34"/><text text-anchor="middle" pointer-events="none" font-family="sans-serif" dy="1.5625" font-size="25" fill="#2A2C34"/><text text-anchor="middle" pointer-events="none" x="0" y="0" font-size="10px" fill="#2A2C34" font-family="sans-serif"> Speed</text><text text-anchor="middle" pointer-events="none" x="0" y="10" font-size="10px" fill="#2A2C34" font-family="sans-serif"> Racer</text></g><g class="node" transform="translate(258.47054999746615,81.97374511864913)"><circle class="outline" cx="0" cy="0" r="25" fill="#F79767" stroke="#f36924" stroke-width="2px"/><text text-anchor="middle" pointer-events="none" font-family="sans-serif" dy="1.5625" font-size="25" fill="#FFFFFF"/><text text-anchor="middle" pointer-events="none" font-family="sans-serif" dy="1.5625" font-size="25" fill="#FFFFFF"/><text text-anchor="middle" pointer-events="none" x="0" y="0" font-size="10px" fill="#FFFFFF" font-family="sans-serif"> Lana</text><text text-anchor="middle" pointer-events="none" x="0" y="10" font-size="10px" fill="#FFFFFF" font-family="sans-serif"> Wacho…</text></g><g class="node" transform="translate(144.25562772155263,-53.46755753996415)"><circle class="outline" cx="0" cy="0" r="25" fill="#F79767" stroke="#f36924" stroke-width="2px"/><text text-anchor="middle" pointer-events="none" font-family="sans-serif" dy="1.5625" font-size="25" fill="#FFFFFF"/><text text-anchor="middle" pointer-events="none" font-family="sans-serif" dy="1.5625" font-size="25" fill="#FFFFFF"/><text text-anchor="middle" pointer-events="none" x="0" y="0" font-size="10px" fill="#FFFFFF" font-family="sans-serif"> Cameron</text><text text-anchor="middle" pointer-events="none" x="0" y="10" font-size="10px" fill="#FFFFFF" font-family="sans-serif"> Crowe</text></g><g class="node" transform="translate(40.32443752080553,-44.607780917366796)"><circle class="outline" cx="0" cy="0" r="25" fill="#57C7E3" stroke="#23b3d7" stroke-width="2px"/><text text-anchor="middle" pointer-events="none" font-family="sans-serif" dy="1.5625" font-size="25" fill="#2A2C34"/><text text-anchor="middle" pointer-events="none" font-family="sans-serif" dy="1.5625" font-size="25" fill="#2A2C34"/><text text-anchor="middle" pointer-events="none" x="0" y="0" font-size="10px" fill="#2A2C34" font-family="sans-serif"> Jerry</text><text text-anchor="middle" pointer-events="none" x="0" y="10" font-size="10px" fill="#2A2C34" font-family="sans-serif"> Maguire</text></g><g class="node" transform="translate(-63.22472622375742,97.78826352087606)"><circle class="outline" cx="0" cy="0" r="25" fill="#F79767" stroke="#f36924" stroke-width="2px"/><text text-anchor="middle" pointer-events="none" font-family="sans-serif" dy="1.5625" font-size="25" fill="#FFFFFF"/><text text-anchor="middle" pointer-events="none" font-family="sans-serif" dy="1.5625" font-size="25" fill="#FFFFFF"/><text text-anchor="middle" pointer-events="none" x="0" y="0" font-size="10px" fill="#FFFFFF" font-family="sans-serif"> Nancy</text><text text-anchor="middle" pointer-events="none" x="0" y="10" font-size="10px" fill="#FFFFFF" font-family="sans-serif"> Meyers</text></g><g class="node" transform="translate(-32.30094078039007,198.3119111610065)"><circle class="outline" cx="0" cy="0" r="25" fill="#57C7E3" stroke="#23b3d7" stroke-width="2px"/><text text-anchor="middle" pointer-events="none" font-family="sans-serif" dy="1.5625" font-size="25" fill="#2A2C34"/><text text-anchor="middle" pointer-events="none" x="0" y="5" font-size="10px" fill="#2A2C34" font-family="sans-serif"> Somethi…</text></g></g></svg>