<svg xmlns="http://www.w3.org/2000/svg" width="215.16604614257812" height="191.31661987304688" viewBox="-20.08075714111328 14.414539337158203 215.16604614257812 191.31661987304688"><title>Neo4j Graph Visualization</title><desc>Created using Neo4j (http://www.neo4j.com/)</desc><g class="layer relationships"><g class="relationship" transform="translate(114.77136705624605 176.73115400970286) rotate(280.33698403916645)"><path class="outline" fill="#A5ABB6" stroke="none" d="M 25 0.5 L 39.92088256402381 0.5 L 39.92088256402381 -0.5 L 25 -0.5 Z M 85.48338256402381 0.5 L 100.40426512804763 0.5 L 100.40426512804763 3.5 L 107.40426512804763 0 L 100.40426512804763 -3.5 L 100.40426512804763 -0.5 L 85.48338256402381 -0.5 Z"/><text text-anchor="middle" pointer-events="none" font-size="8px" fill="#000000" x="62.70213256402381" y="3" font-family="sans-serif">ACTED_IN</text></g><g class="relationship" transform="translate(114.77136705624605 176.73115400970286) rotate(303.67676357245415)"><path class="outline" fill="#A5ABB6" stroke="none" d="M 25 0.5 L 25.101885192623854 0.5 L 25.101885192623854 -0.5 L 25 -0.5 Z M 60.437822692623854 0.5 L 60.53970788524771 0.5 L 60.53970788524771 3.5 L 67.53970788524771 0 L 60.53970788524771 -3.5 L 60.53970788524771 -0.5 L 60.437822692623854 -0.5 Z"/><text text-anchor="middle" pointer-events="none" font-size="8px" fill="#000000" x="42.769853942623854" y="3" font-family="sans-serif">ACTE…</text></g><g class="relationship" transform="translate(114.77136705624605 176.73115400970286) rotate(195.74230284976187)"><path class="outline" fill="#A5ABB6" stroke="none" d="M 25 0.5 L 28.707341320155663 0.5 L 28.707341320155663 -0.5 L 25 -0.5 Z M 74.26984132015566 0.5 L 77.97718264031133 0.5 L 77.97718264031133 3.5 L 84.97718264031133 0 L 77.97718264031133 -3.5 L 77.97718264031133 -0.5 L 74.26984132015566 -0.5 Z"/><text text-anchor="middle" pointer-events="none" font-size="8px" fill="#000000" x="51.48859132015566" y="3" transform="rotate(180 51.48859132015566 0)" font-family="sans-serif">ACTED_IN</text></g><g class="relationship" transform="translate(46.17168618123769 43.41454018341096) rotate(361.89846232979494)"><path class="outline" fill="#A5ABB6" stroke="none" d="M 25 0.5 L 25.036362864254478 0.5 L 25.036362864254478 -0.5 L 25 -0.5 Z M 60.37230036425448 0.5 L 60.408663228508956 0.5 L 60.408663228508956 3.5 L 67.40866322850896 0 L 60.408663228508956 -3.5 L 60.408663228508956 -0.5 L 60.37230036425448 -0.5 Z"/><text text-anchor="middle" pointer-events="none" font-size="8px" fill="#000000" x="42.70433161425448" y="3" font-family="sans-serif">ACTE…</text></g><g class="relationship" transform="translate(46.17168618123769 43.41454018341096) rotate(385.15302017527324)"><path class="outline" fill="#A5ABB6" stroke="none" d="M 25 0.5 L 39.95648306250162 0.5 L 39.95648306250162 -0.5 L 25 -0.5 Z M 85.51898306250162 0.5 L 100.47546612500324 0.5 L 100.47546612500324 3.5 L 107.47546612500324 0 L 100.47546612500324 -3.5 L 100.47546612500324 -0.5 L 85.51898306250162 -0.5 Z"/><text text-anchor="middle" pointer-events="none" font-size="8px" fill="#000000" x="62.73773306250162" y="3" font-family="sans-serif">ACTED_IN</text></g><g class="relationship" transform="translate(46.17168618123769 43.41454018341096) rotate(469.79895273839116)"><path class="outline" fill="#A5ABB6" stroke="none" d="M 25 0.5 L 28.708659644556732 0.5 L 28.708659644556732 -0.5 L 25 -0.5 Z M 74.27115964455673 0.5 L 77.97981928911346 0.5 L 77.97981928911346 3.5 L 84.97981928911346 0 L 77.97981928911346 -3.5 L 77.97981928911346 -0.5 L 74.27115964455673 -0.5 Z"/><text text-anchor="middle" pointer-events="none" font-size="8px" fill="#000000" x="51.48990964455673" y="3" transform="rotate(180 51.48990964455673 0)" font-family="sans-serif">ACTED_IN</text></g></g><g class="layer nodes"><g class="node" transform="translate(114.77136705624605,176.73115400970286)"><circle class="outline" cx="0" cy="0" r="25" fill="#F79767" stroke="#f36924" stroke-width="2px"/><text text-anchor="middle" pointer-events="none" font-family="sans-serif" dy="1.5625" font-size="25" fill="#FFFFFF"/><text text-anchor="middle" pointer-events="none" font-family="sans-serif" dy="1.5625" font-size="25" fill="#FFFFFF"/><text text-anchor="middle" pointer-events="none" x="0" y="0" font-size="10px" fill="#FFFFFF" font-family="sans-serif"> Keanu</text><text text-anchor="middle" pointer-events="none" x="0" y="10" font-size="10px" fill="#FFFFFF" font-family="sans-serif"> Reeves</text></g><g class="node" transform="translate(166.08528110125656,99.72154577236503)"><circle class="outline" cx="0" cy="0" r="25" fill="#57C7E3" stroke="#23b3d7" stroke-width="2px"/><text text-anchor="middle" pointer-events="none" font-family="sans-serif" dy="1.5625" font-size="25" fill="#2A2C34"/><text text-anchor="middle" pointer-events="none" font-family="sans-serif" dy="1.5625" font-size="25" fill="#2A2C34"/><text text-anchor="middle" pointer-events="none" font-family="sans-serif" dy="1.5625" font-size="25" fill="#2A2C34"/><text text-anchor="middle" pointer-events="none" x="0" y="-5" font-size="10px" fill="#2A2C34" font-family="sans-serif"> The</text><text text-anchor="middle" pointer-events="none" x="0" y="5" font-size="10px" fill="#2A2C34" font-family="sans-serif"> Matrix</text><text text-anchor="middle" pointer-events="none" x="0" y="15" font-size="10px" fill="#2A2C34" font-family="sans-serif"> Reloa…</text></g><g class="node" transform="translate(138.52962679174024,46.475887250776275)"><circle class="outline" cx="0" cy="0" r="25" fill="#57C7E3" stroke="#23b3d7" stroke-width="2px"/><text text-anchor="middle" pointer-events="none" font-family="sans-serif" dy="1.5625" font-size="25" fill="#2A2C34"/><text text-anchor="middle" pointer-events="none" font-family="sans-serif" dy="1.5625" font-size="25" fill="#2A2C34"/><text text-anchor="middle" pointer-events="none" font-family="sans-serif" dy="1.5625" font-size="25" fill="#2A2C34"/><text text-anchor="middle" pointer-events="none" x="0" y="-5" font-size="10px" fill="#2A2C34" font-family="sans-serif"> The</text><text text-anchor="middle" pointer-events="none" x="0" y="5" font-size="10px" fill="#2A2C34" font-family="sans-serif"> Matrix</text><text text-anchor="middle" pointer-events="none" x="0" y="15" font-size="10px" fill="#2A2C34" font-family="sans-serif"> Revol…</text></g><g class="node" transform="translate(46.17168618123769,43.41454018341096)"><circle class="outline" cx="0" cy="0" r="25" fill="#F79767" stroke="#f36924" stroke-width="2px"/><text text-anchor="middle" pointer-events="none" font-family="sans-serif" dy="1.5625" font-size="25" fill="#FFFFFF"/><text text-anchor="middle" pointer-events="none" font-family="sans-serif" dy="1.5625" font-size="25" fill="#FFFFFF"/><text text-anchor="middle" pointer-events="none" x="0" y="0" font-size="10px" fill="#FFFFFF" font-family="sans-serif"> Hugo</text><text text-anchor="middle" pointer-events="none" x="0" y="10" font-size="10px" fill="#FFFFFF" font-family="sans-serif"> Weaving</text></g><g class="node" transform="translate(8.919242318401803,146.89311804913308)"><circle class="outline" cx="0" cy="0" r="25" fill="#57C7E3" stroke="#23b3d7" stroke-width="2px"/><text text-anchor="middle" pointer-events="none" font-family="sans-serif" dy="1.5625" font-size="25" fill="#2A2C34"/><text text-anchor="middle" pointer-events="none" font-family="sans-serif" dy="1.5625" font-size="25" fill="#2A2C34"/><text text-anchor="middle" pointer-events="none" x="0" y="0" font-size="10px" fill="#2A2C34" font-family="sans-serif"> The</text><text text-anchor="middle" pointer-events="none" x="0" y="10" font-size="10px" fill="#2A2C34" font-family="sans-serif"> Matrix</text></g></g></svg>