<svg xmlns="http://www.w3.org/2000/svg" width="283.087646484375" height="288.2563171386719" viewBox="-41.90788269042969 -36.592445373535156 283.087646484375 288.2563171386719"><title>Neo4j Graph Visualization</title><desc>Created using Neo4j (http://www.neo4j.com/)</desc><g class="layer relationships"><g class="relationship" transform="translate(131.4257439948862 222.66386333429617) rotate(256.7863789951369)"><path class="outline" fill="#A5ABB6" stroke="none" d="M 25 0.5 L 37.15890306180619 0.5 L 37.15890306180619 -0.5 L 25 -0.5 Z M 72.9323405618062 0.5 L 85.09124362361239 0.5 L 85.09124362361239 3.5 L 92.09124362361239 0 L 85.09124362361239 -3.5 L 85.09124362361239 -0.5 L 72.9323405618062 -0.5 Z"/><text text-anchor="middle" pointer-events="none" font-size="8px" fill="#000000" x="55.04562181180619" y="3" transform="rotate(180 55.04562181180619 0)" font-family="sans-serif">WROTE</text></g><g class="relationship" transform="translate(212.17974681644174 153.93143272359688) rotate(202.8280504342727)"><path class="outline" fill="#A5ABB6" stroke="none" d="M 25 0.5 L 32.04689480385574 0.5 L 32.04689480385574 -0.5 L 25 -0.5 Z M 77.60939480385574 0.5 L 84.65628960771149 0.5 L 84.65628960771149 3.5 L 91.65628960771149 0 L 84.65628960771149 -3.5 L 84.65628960771149 -0.5 L 77.60939480385574 -0.5 Z"/><text text-anchor="middle" pointer-events="none" font-size="8px" fill="#000000" x="54.82814480385574" y="3" transform="rotate(180 54.82814480385574 0)" font-family="sans-serif">ACTED_IN</text></g><g class="relationship" transform="translate(206.3095113274955 49.5182917358121) rotate(509.8027878937229)"><path class="outline" fill="#A5ABB6" stroke="none" d="M 25 0.5 L 32.52289195829091 0.5 L 32.52289195829091 -0.5 L 25 -0.5 Z M 78.08539195829091 0.5 L 85.60828391658183 0.5 L 85.60828391658183 3.5 L 92.60828391658183 0 L 85.60828391658183 -3.5 L 85.60828391658183 -0.5 L 78.08539195829091 -0.5 Z"/><text text-anchor="middle" pointer-events="none" font-size="8px" fill="#000000" x="55.30414195829091" y="3" transform="rotate(180 55.30414195829091 0)" font-family="sans-serif">ACTED_IN</text></g><g class="relationship" transform="translate(121.85409882208066 -7.592443533587413) rotate(458.4119630676453)"><path class="outline" fill="#A5ABB6" stroke="none" d="M 25 0.5 L 37.378034642475406 0.5 L 37.378034642475406 -0.5 L 25 -0.5 Z M 73.1514721424754 0.5 L 85.52950678495081 0.5 L 85.52950678495081 3.5 L 92.52950678495081 0 L 85.52950678495081 -3.5 L 85.52950678495081 -0.5 L 73.1514721424754 -0.5 Z"/><text text-anchor="middle" pointer-events="none" font-size="8px" fill="#000000" x="55.264753392475406" y="3" transform="rotate(180 55.264753392475406 0)" font-family="sans-serif">WROTE</text></g><g class="relationship" transform="translate(30.847407143685068 17.838156765526286) rotate(410.90222149782124)"><path class="outline" fill="#A5ABB6" stroke="none" d="M 25 0.5 L 37.135322523555004 0.5 L 37.135322523555004 -0.5 L 25 -0.5 Z M 72.908760023555 0.5 L 85.04408254711001 0.5 L 85.04408254711001 3.5 L 92.04408254711001 0 L 85.04408254711001 -3.5 L 85.04408254711001 -0.5 L 72.908760023555 -0.5 Z"/><text text-anchor="middle" pointer-events="none" font-size="8px" fill="#000000" x="55.022041273555004" y="3" font-family="sans-serif">WROTE</text></g><g class="relationship" transform="translate(-12.907882292183785 101.64973650926338) rotate(363.41848145826924)"><path class="outline" fill="#A5ABB6" stroke="none" d="M 25 0.5 L 31.94379150347079 0.5 L 31.94379150347079 -0.5 L 25 -0.5 Z M 78.83441650347079 0.5 L 85.77820800694158 0.5 L 85.77820800694158 3.5 L 92.77820800694158 0 L 85.77820800694158 -3.5 L 85.77820800694158 -0.5 L 78.83441650347079 -0.5 Z"/><text text-anchor="middle" pointer-events="none" font-size="8px" fill="#000000" x="55.38910400347079" y="3" font-family="sans-serif">DIRECTED</text></g><g class="relationship" transform="translate(28.75672171537339 197.858780514469) rotate(310.4002591308601)"><path class="outline" fill="#A5ABB6" stroke="none" d="M 25 0.5 L 37.1700632488098 0.5 L 37.1700632488098 -0.5 L 25 -0.5 Z M 72.9435007488098 0.5 L 85.1135639976196 0.5 L 85.1135639976196 3.5 L 92.1135639976196 0 L 85.1135639976196 -3.5 L 85.1135639976196 -0.5 L 72.9435007488098 -0.5 Z"/><text text-anchor="middle" pointer-events="none" font-size="8px" fill="#000000" x="55.0567819988098" y="3" font-family="sans-serif">WROTE</text></g></g><g class="layer nodes"><g class="node" transform="translate(104.66075658832565,108.6726584873835)"><circle class="outline" cx="0" cy="0" r="25" fill="#57C7E3" stroke="#23b3d7" stroke-width="2px"/><text text-anchor="middle" pointer-events="none" font-family="sans-serif" dy="1.5625" font-size="25" fill="#2A2C34"/><text text-anchor="middle" pointer-events="none" font-family="sans-serif" dy="1.5625" font-size="25" fill="#2A2C34"/><text text-anchor="middle" pointer-events="none" font-family="sans-serif" dy="1.5625" font-size="25" fill="#2A2C34"/><text text-anchor="middle" pointer-events="none" x="0" y="-5" font-size="10px" fill="#2A2C34" font-family="sans-serif"> Captain</text><text text-anchor="middle" pointer-events="none" x="0" y="5" font-size="10px" fill="#2A2C34" font-family="sans-serif"> America:</text><text text-anchor="middle" pointer-events="none" x="0" y="15" font-size="10px" fill="#2A2C34" font-family="sans-serif"> The Fi…</text></g><g class="node" transform="translate(131.4257439948862,222.66386333429617)"><circle class="outline" cx="0" cy="0" r="25" fill="#F79767" stroke="#f36924" stroke-width="2px"/><text text-anchor="middle" pointer-events="none" font-family="sans-serif" dy="1.5625" font-size="25" fill="#FFFFFF"/><text text-anchor="middle" pointer-events="none" x="0" y="5" font-size="10px" fill="#FFFFFF" font-family="sans-serif"> Jack Kirby</text></g><g class="node" transform="translate(212.17974681644174,153.93143272359688)"><circle class="outline" cx="0" cy="0" r="25" fill="#F79767" stroke="#f36924" stroke-width="2px"/><text text-anchor="middle" pointer-events="none" font-family="sans-serif" dy="1.5625" font-size="25" fill="#FFFFFF"/><text text-anchor="middle" pointer-events="none" font-family="sans-serif" dy="1.5625" font-size="25" fill="#FFFFFF"/><text text-anchor="middle" pointer-events="none" x="0" y="0" font-size="10px" fill="#FFFFFF" font-family="sans-serif"> Chris</text><text text-anchor="middle" pointer-events="none" x="0" y="10" font-size="10px" fill="#FFFFFF" font-family="sans-serif"> Evans</text></g><g class="node" transform="translate(206.3095113274955,49.5182917358121)"><circle class="outline" cx="0" cy="0" r="25" fill="#F79767" stroke="#f36924" stroke-width="2px"/><text text-anchor="middle" pointer-events="none" font-family="sans-serif" dy="1.5625" font-size="25" fill="#FFFFFF"/><text text-anchor="middle" pointer-events="none" x="0" y="5" font-size="10px" fill="#FFFFFF" font-family="sans-serif"> Sebastian</text></g><g class="node" transform="translate(121.85409882208066,-7.592443533587413)"><circle class="outline" cx="0" cy="0" r="25" fill="#F79767" stroke="#f36924" stroke-width="2px"/><text text-anchor="middle" pointer-events="none" font-family="sans-serif" dy="1.5625" font-size="25" fill="#FFFFFF"/><text text-anchor="middle" pointer-events="none" font-family="sans-serif" dy="1.5625" font-size="25" fill="#FFFFFF"/><text text-anchor="middle" pointer-events="none" x="0" y="0" font-size="10px" fill="#FFFFFF" font-family="sans-serif"> Stephen</text><text text-anchor="middle" pointer-events="none" x="0" y="10" font-size="10px" fill="#FFFFFF" font-family="sans-serif"> McFeely</text></g><g class="node" transform="translate(30.847407143685068,17.838156765526286)"><circle class="outline" cx="0" cy="0" r="25" fill="#F79767" stroke="#f36924" stroke-width="2px"/><text text-anchor="middle" pointer-events="none" font-family="sans-serif" dy="1.5625" font-size="25" fill="#FFFFFF"/><text text-anchor="middle" pointer-events="none" x="0" y="5" font-size="10px" fill="#FFFFFF" font-family="sans-serif"> Christop…</text></g><g class="node" transform="translate(-12.907882292183785,101.64973650926338)"><circle class="outline" cx="0" cy="0" r="25" fill="#F79767" stroke="#f36924" stroke-width="2px"/><text text-anchor="middle" pointer-events="none" font-family="sans-serif" dy="1.5625" font-size="25" fill="#FFFFFF"/><text text-anchor="middle" pointer-events="none" font-family="sans-serif" dy="1.5625" font-size="25" fill="#FFFFFF"/><text text-anchor="middle" pointer-events="none" x="0" y="0" font-size="10px" fill="#FFFFFF" font-family="sans-serif"> Joe</text><text text-anchor="middle" pointer-events="none" x="0" y="10" font-size="10px" fill="#FFFFFF" font-family="sans-serif"> Johnston</text></g><g class="node" transform="translate(28.75672171537339,197.858780514469)"><circle class="outline" cx="0" cy="0" r="25" fill="#F79767" stroke="#f36924" stroke-width="2px"/><text text-anchor="middle" pointer-events="none" font-family="sans-serif" dy="1.5625" font-size="25" fill="#FFFFFF"/><text text-anchor="middle" pointer-events="none" font-family="sans-serif" dy="1.5625" font-size="25" fill="#FFFFFF"/><text text-anchor="middle" pointer-events="none" x="0" y="0" font-size="10px" fill="#FFFFFF" font-family="sans-serif"> Joe</text><text text-anchor="middle" pointer-events="none" x="0" y="10" font-size="10px" fill="#FFFFFF" font-family="sans-serif"> Simon</text></g></g></svg>