<svg xmlns="http://www.w3.org/2000/svg" width="406.77362060546875" height="400.0474548339844" viewBox="-97.90576171875 -85.1729736328125 406.77362060546875 400.0474548339844"><title>Neo4j Graph Visualization</title><desc>Created using Neo4j (http://www.neo4j.com/)</desc><g class="layer relationships"><g class="relationship" transform="translate(279.8678692493597 107.64311460413717) rotate(465.4772349033456)"><path class="outline" fill="#A5ABB6" stroke="none" d="M 25 0.5 L 33.054914260778666 0.5 L 33.054914260778666 -0.5 L 25 -0.5 Z M 67.50022676077867 0.5 L 75.55514102155733 0.5 L 75.55514102155733 3.5 L 82.55514102155733 0 L 75.55514102155733 -3.5 L 75.55514102155733 -0.5 L 67.50022676077867 -0.5 Z"/><text text-anchor="middle" pointer-events="none" font-size="8px" fill="#000000" x="50.277570510778666" y="3" transform="rotate(180 50.277570510778666 0)" font-family="sans-serif">ORIGIN</text></g><g class="relationship" transform="translate(279.8678692493597 107.64311460413717) rotate(251.69270529554097)"><path class="outline" fill="#A5ABB6" stroke="none" d="M 25 0.5 L 26.306529772716154 0.5 L 26.306529772716154 -0.5 L 25 -0.5 Z M 74.97840477271615 0.5 L 76.28493454543231 0.5 L 76.28493454543231 3.5 L 83.28493454543231 0 L 76.28493454543231 -3.5 L 76.28493454543231 -0.5 L 74.97840477271615 -0.5 Z"/><text text-anchor="middle" pointer-events="none" font-size="8px" fill="#000000" x="50.642467272716154" y="3" transform="rotate(180 50.642467272716154 0)" font-family="sans-serif">DESTINA…</text></g><g class="relationship" transform="translate(154.9438489171568 -54.26320578415985) rotate(393.0285163377625)"><path class="outline" fill="#A5ABB6" stroke="none" d="M 25 0.5 L 33.49391366524149 0.5 L 33.49391366524149 -0.5 L 25 -0.5 Z M 67.9392261652415 0.5 L 76.43313983048299 0.5 L 76.43313983048299 3.5 L 83.43313983048299 0 L 76.43313983048299 -3.5 L 76.43313983048299 -0.5 L 67.9392261652415 -0.5 Z"/><text text-anchor="middle" pointer-events="none" font-size="8px" fill="#000000" x="50.71656991524149" y="3" font-family="sans-serif">ORIGIN</text></g><g class="relationship" transform="translate(154.9438489171568 -54.26320578415985) rotate(181.00646290721835)"><path class="outline" fill="#A5ABB6" stroke="none" d="M 25 0.5 L 26.526330547760907 0.5 L 26.526330547760907 -0.5 L 25 -0.5 Z M 75.1982055477609 0.5 L 76.72453609552181 0.5 L 76.72453609552181 3.5 L 83.72453609552181 0 L 76.72453609552181 -3.5 L 76.72453609552181 -0.5 L 75.1982055477609 -0.5 Z"/><text text-anchor="middle" pointer-events="none" font-size="8px" fill="#000000" x="50.86226804776091" y="3" transform="rotate(180 50.86226804776091 0)" font-family="sans-serif">DESTINA…</text></g><g class="relationship" transform="translate(-44.345956504940915 4.1301850645965255) rotate(326.3471140084715)"><path class="outline" fill="#A5ABB6" stroke="none" d="M 25 0.5 L 26.57356859054228 0.5 L 26.57356859054228 -0.5 L 25 -0.5 Z M 75.24544359054228 0.5 L 76.81901218108456 0.5 L 76.81901218108456 3.5 L 83.81901218108456 0 L 76.81901218108456 -3.5 L 76.81901218108456 -0.5 L 75.24544359054228 -0.5 Z"/><text text-anchor="middle" pointer-events="none" font-size="8px" fill="#000000" x="50.90950609054228" y="3" font-family="sans-serif">DESTINA…</text></g><g class="relationship" transform="translate(-44.345956504940915 4.1301850645965255) rotate(463.0073303895959)"><path class="outline" fill="#A5ABB6" stroke="none" d="M 25 0.5 L 33.83632870010345 0.5 L 33.83632870010345 -0.5 L 25 -0.5 Z M 68.28164120010345 0.5 L 77.1179699002069 0.5 L 77.1179699002069 3.5 L 84.1179699002069 0 L 77.1179699002069 -3.5 L 77.1179699002069 -0.5 L 68.28164120010345 -0.5 Z"/><text text-anchor="middle" pointer-events="none" font-size="8px" fill="#000000" x="51.05898495010345" y="3" transform="rotate(180 51.05898495010345 0)" font-family="sans-serif">ORIGIN</text></g><g class="relationship" transform="translate(-33.9125500825172 212.25632241938797) rotate(251.0312466290842)"><path class="outline" fill="#A5ABB6" stroke="none" d="M 25 0.5 L 33.10436468975868 0.5 L 33.10436468975868 -0.5 L 25 -0.5 Z M 67.54967718975868 0.5 L 75.65404187951737 0.5 L 75.65404187951737 3.5 L 82.65404187951737 0 L 75.65404187951737 -3.5 L 75.65404187951737 -0.5 L 67.54967718975868 -0.5 Z"/><text text-anchor="middle" pointer-events="none" font-size="8px" fill="#000000" x="50.32702093975868" y="3" transform="rotate(180 50.32702093975868 0)" font-family="sans-serif">ORIGIN</text></g><g class="relationship" transform="translate(-33.9125500825172 212.25632241938797) rotate(403.73433403219576)"><path class="outline" fill="#A5ABB6" stroke="none" d="M 25 0.5 L 25.409050584912443 0.5 L 25.409050584912443 -0.5 L 25 -0.5 Z M 74.08092558491245 0.5 L 74.48997616982489 0.5 L 74.48997616982489 3.5 L 81.48997616982489 0 L 74.48997616982489 -3.5 L 74.48997616982489 -0.5 L 74.08092558491245 -0.5 Z"/><text text-anchor="middle" pointer-events="none" font-size="8px" fill="#000000" x="49.74498808491244" y="3" font-family="sans-serif">DESTINA…</text></g></g><g class="layer nodes"><g class="node" transform="translate(251.16619050155174,211.29793599332635)"><circle class="outline" cx="0" cy="0" r="25" fill="#F79767" stroke="#f36924" stroke-width="2px"/><text text-anchor="middle" pointer-events="none" font-family="sans-serif" dy="1.5625" font-size="25" fill="#FFFFFF"/><text text-anchor="middle" pointer-events="none" x="0" y="5" font-size="10px" fill="#FFFFFF" font-family="sans-serif"> LAX</text></g><g class="node" transform="translate(43.03210278015892,285.87449558669863)"><circle class="outline" cx="0" cy="0" r="25" fill="#F79767" stroke="#f36924" stroke-width="2px"/><text text-anchor="middle" pointer-events="none" font-family="sans-serif" dy="1.5625" font-size="25" fill="#FFFFFF"/><text text-anchor="middle" pointer-events="none" x="0" y="5" font-size="10px" fill="#FFFFFF" font-family="sans-serif"> DAY</text></g><g class="node" transform="translate(279.8678692493597,107.64311460413717)"><circle class="outline" cx="0" cy="0" r="25" fill="#57C7E3" stroke="#23b3d7" stroke-width="2px"/><text text-anchor="middle" pointer-events="none" font-family="sans-serif" dy="1.5625" font-size="25" fill="#2A2C34"/><text text-anchor="middle" pointer-events="none" x="0" y="5" font-size="10px" fill="#2A2C34" font-family="sans-serif"> 11/30/20…</text></g><g class="node" transform="translate(245.85412775608745,4.838968582989728)"><circle class="outline" cx="0" cy="0" r="25" fill="#F79767" stroke="#f36924" stroke-width="2px"/><text text-anchor="middle" pointer-events="none" font-family="sans-serif" dy="1.5625" font-size="25" fill="#FFFFFF"/><text text-anchor="middle" pointer-events="none" x="0" y="5" font-size="10px" fill="#FFFFFF" font-family="sans-serif"> IAH</text></g><g class="node" transform="translate(154.9438489171568,-54.26320578415985)"><circle class="outline" cx="0" cy="0" r="25" fill="#57C7E3" stroke="#23b3d7" stroke-width="2px"/><text text-anchor="middle" pointer-events="none" font-family="sans-serif" dy="1.5625" font-size="25" fill="#2A2C34"/><text text-anchor="middle" pointer-events="none" x="0" y="5" font-size="10px" fill="#2A2C34" font-family="sans-serif"> 11/29/20…</text></g><g class="node" transform="translate(46.2360868233429,-56.17297271789396)"><circle class="outline" cx="0" cy="0" r="25" fill="#F79767" stroke="#f36924" stroke-width="2px"/><text text-anchor="middle" pointer-events="none" font-family="sans-serif" dy="1.5625" font-size="25" fill="#FFFFFF"/><text text-anchor="middle" pointer-events="none" x="0" y="5" font-size="10px" fill="#FFFFFF" font-family="sans-serif"> ORD</text></g><g class="node" transform="translate(-44.345956504940915,4.1301850645965255)"><circle class="outline" cx="0" cy="0" r="25" fill="#57C7E3" stroke="#23b3d7" stroke-width="2px"/><text text-anchor="middle" pointer-events="none" font-family="sans-serif" dy="1.5625" font-size="25" fill="#2A2C34"/><text text-anchor="middle" pointer-events="none" x="0" y="5" font-size="10px" fill="#2A2C34" font-family="sans-serif"> 11/29/20…</text></g><g class="node" transform="translate(-68.90576136573533,110.44832716810659)"><circle class="outline" cx="0" cy="0" r="25" fill="#F79767" stroke="#f36924" stroke-width="2px"/><text text-anchor="middle" pointer-events="none" font-family="sans-serif" dy="1.5625" font-size="25" fill="#FFFFFF"/><text text-anchor="middle" pointer-events="none" x="0" y="5" font-size="10px" fill="#FFFFFF" font-family="sans-serif"> MSP</text></g><g class="node" transform="translate(-33.9125500825172,212.25632241938797)"><circle class="outline" cx="0" cy="0" r="25" fill="#57C7E3" stroke="#23b3d7" stroke-width="2px"/><text text-anchor="middle" pointer-events="none" font-family="sans-serif" dy="1.5625" font-size="25" fill="#2A2C34"/><text text-anchor="middle" pointer-events="none" x="0" y="5" font-size="10px" fill="#2A2C34" font-family="sans-serif"> 11/16/20…</text></g></g></svg>