<svg xmlns="http://www.w3.org/2000/svg" width="406.9703369140625" height="400.16400146484375" viewBox="-97.92363739013672 -85.214111328125 406.9703369140625 400.16400146484375"><title>Neo4j Graph Visualization</title><desc>Created using Neo4j (http://www.neo4j.com/)</desc><g class="layer relationships"><g class="relationship" transform="translate(280.04669005062556 107.25104637114875) rotate(465.3664831002359)"><path class="outline" fill="#A5ABB6" stroke="none" d="M 25 0.5 L 33.09591839714156 0.5 L 33.09591839714156 -0.5 L 25 -0.5 Z M 67.54123089714156 0.5 L 75.63714929428312 0.5 L 75.63714929428312 3.5 L 82.63714929428312 0 L 75.63714929428312 -3.5 L 75.63714929428312 -0.5 L 67.54123089714156 -0.5 Z"/><text text-anchor="middle" pointer-events="none" font-size="8px" fill="#000000" x="50.31857464714156" y="3" transform="rotate(180 50.31857464714156 0)" font-family="sans-serif">ORIGIN</text></g><g class="relationship" transform="translate(280.04669005062556 107.25104637114875) rotate(251.55207469146205)"><path class="outline" fill="#A5ABB6" stroke="none" d="M 25 0.5 L 26.321362234133225 0.5 L 26.321362234133225 -0.5 L 25 -0.5 Z M 74.99323723413323 0.5 L 76.31459946826645 0.5 L 76.31459946826645 3.5 L 83.31459946826645 0 L 76.31459946826645 -3.5 L 76.31459946826645 -0.5 L 74.99323723413323 -0.5 Z"/><text text-anchor="middle" pointer-events="none" font-size="8px" fill="#000000" x="50.657299734133225" y="3" transform="rotate(180 50.657299734133225 0)" font-family="sans-serif">DESTINA…</text></g><g class="relationship" transform="translate(154.74407770811342 -54.4278385509454) rotate(392.9187302928026)"><path class="outline" fill="#A5ABB6" stroke="none" d="M 25 0.5 L 33.496235274773 0.5 L 33.496235274773 -0.5 L 25 -0.5 Z M 67.941547774773 0.5 L 76.437783049546 0.5 L 76.437783049546 3.5 L 83.437783049546 0 L 76.437783049546 -3.5 L 76.437783049546 -0.5 L 67.941547774773 -0.5 Z"/><text text-anchor="middle" pointer-events="none" font-size="8px" fill="#000000" x="50.718891524773" y="3" font-family="sans-serif">ORIGIN</text></g><g class="relationship" transform="translate(154.74407770811342 -54.4278385509454) rotate(180.94135868207252)"><path class="outline" fill="#A5ABB6" stroke="none" d="M 25 0.5 L 26.527333474657794 0.5 L 26.527333474657794 -0.5 L 25 -0.5 Z M 75.1992084746578 0.5 L 76.72654194931559 0.5 L 76.72654194931559 3.5 L 83.72654194931559 0 L 76.72654194931559 -3.5 L 76.72654194931559 -0.5 L 75.1992084746578 -0.5 Z"/><text text-anchor="middle" pointer-events="none" font-size="8px" fill="#000000" x="50.863270974657794" y="3" transform="rotate(180 50.863270974657794 0)" font-family="sans-serif">DESTINA…</text></g><g class="relationship" transform="translate(-44.49872604178551 4.170556999633949) rotate(326.2964771972004)"><path class="outline" fill="#A5ABB6" stroke="none" d="M 25 0.5 L 26.574904611625804 0.5 L 26.574904611625804 -0.5 L 25 -0.5 Z M 75.24677961162581 0.5 L 76.82168422325161 0.5 L 76.82168422325161 3.5 L 83.82168422325161 0 L 76.82168422325161 -3.5 L 76.82168422325161 -0.5 L 75.24677961162581 -0.5 Z"/><text text-anchor="middle" pointer-events="none" font-size="8px" fill="#000000" x="50.910842111625804" y="3" font-family="sans-serif">DESTINA…</text></g><g class="relationship" transform="translate(-44.49872604178551 4.170556999633949) rotate(462.93317886861166)"><path class="outline" fill="#A5ABB6" stroke="none" d="M 25 0.5 L 33.84241124642609 0.5 L 33.84241124642609 -0.5 L 25 -0.5 Z M 68.28772374642608 0.5 L 77.13013499285218 0.5 L 77.13013499285218 3.5 L 84.13013499285218 0 L 77.13013499285218 -3.5 L 77.13013499285218 -0.5 L 68.28772374642608 -0.5 Z"/><text text-anchor="middle" pointer-events="none" font-size="8px" fill="#000000" x="51.06506749642609" y="3" transform="rotate(180 51.06506749642609 0)" font-family="sans-serif">ORIGIN</text></g><g class="relationship" transform="translate(-33.988474056424344 212.34695765574517) rotate(251.06162779497674)"><path class="outline" fill="#A5ABB6" stroke="none" d="M 25 0.5 L 33.09811115876117 0.5 L 33.09811115876117 -0.5 L 25 -0.5 Z M 67.54342365876117 0.5 L 75.64153481752234 0.5 L 75.64153481752234 3.5 L 82.64153481752234 0 L 75.64153481752234 -3.5 L 75.64153481752234 -0.5 L 67.54342365876117 -0.5 Z"/><text text-anchor="middle" pointer-events="none" font-size="8px" fill="#000000" x="50.32076740876117" y="3" transform="rotate(180 50.32076740876117 0)" font-family="sans-serif">ORIGIN</text></g><g class="relationship" transform="translate(-33.988474056424344 212.34695765574517) rotate(403.72839284884054)"><path class="outline" fill="#A5ABB6" stroke="none" d="M 25 0.5 L 25.40380220220345 0.5 L 25.40380220220345 -0.5 L 25 -0.5 Z M 74.07567720220345 0.5 L 74.4794794044069 0.5 L 74.4794794044069 3.5 L 81.4794794044069 0 L 74.4794794044069 -3.5 L 74.4794794044069 -0.5 L 74.07567720220345 -0.5 Z"/><text text-anchor="middle" pointer-events="none" font-size="8px" fill="#000000" x="49.73973970220345" y="3" font-family="sans-serif">DESTINA…</text></g></g><g class="layer nodes"><g class="node" transform="translate(251.52369632639585,211.04023047627285)"><circle class="outline" cx="0" cy="0" r="25" fill="#F79767" stroke="#f36924" stroke-width="2px"/><text text-anchor="middle" pointer-events="none" font-family="sans-serif" dy="1.5625" font-size="25" fill="#FFFFFF"/><text text-anchor="middle" pointer-events="none" x="0" y="5" font-size="10px" fill="#FFFFFF" font-family="sans-serif"> LAX</text></g><g class="node" transform="translate(42.95622687546788,285.9498959988248)"><circle class="outline" cx="0" cy="0" r="25" fill="#F79767" stroke="#f36924" stroke-width="2px"/><text text-anchor="middle" pointer-events="none" font-family="sans-serif" dy="1.5625" font-size="25" fill="#FFFFFF"/><text text-anchor="middle" pointer-events="none" x="0" y="5" font-size="10px" fill="#FFFFFF" font-family="sans-serif"> DAY</text></g><g class="node" transform="translate(280.04669005062556,107.25104637114875)"><circle class="outline" cx="0" cy="0" r="25" fill="#57C7E3" stroke="#23b3d7" stroke-width="2px"/><text text-anchor="middle" pointer-events="none" font-family="sans-serif" dy="1.5625" font-size="25" fill="#2A2C34"/><text text-anchor="middle" pointer-events="none" x="0" y="5" font-size="10px" fill="#2A2C34" font-family="sans-serif"> 11/30/20…</text></g><g class="node" transform="translate(245.77133463005865,4.502555050035913)"><circle class="outline" cx="0" cy="0" r="25" fill="#F79767" stroke="#f36924" stroke-width="2px"/><text text-anchor="middle" pointer-events="none" font-family="sans-serif" dy="1.5625" font-size="25" fill="#FFFFFF"/><text text-anchor="middle" pointer-events="none" x="0" y="5" font-size="10px" fill="#FFFFFF" font-family="sans-serif"> IAH</text></g><g class="node" transform="translate(154.74407770811342,-54.4278385509454)"><circle class="outline" cx="0" cy="0" r="25" fill="#57C7E3" stroke="#23b3d7" stroke-width="2px"/><text text-anchor="middle" pointer-events="none" font-family="sans-serif" dy="1.5625" font-size="25" fill="#2A2C34"/><text text-anchor="middle" pointer-events="none" x="0" y="5" font-size="10px" fill="#2A2C34" font-family="sans-serif"> 11/29/20…</text></g><g class="node" transform="translate(46.03221017425249,-56.21411444132653)"><circle class="outline" cx="0" cy="0" r="25" fill="#F79767" stroke="#f36924" stroke-width="2px"/><text text-anchor="middle" pointer-events="none" font-family="sans-serif" dy="1.5625" font-size="25" fill="#FFFFFF"/><text text-anchor="middle" pointer-events="none" x="0" y="5" font-size="10px" fill="#FFFFFF" font-family="sans-serif"> ORD</text></g><g class="node" transform="translate(-44.49872604178551,4.170556999633949)"><circle class="outline" cx="0" cy="0" r="25" fill="#57C7E3" stroke="#23b3d7" stroke-width="2px"/><text text-anchor="middle" pointer-events="none" font-family="sans-serif" dy="1.5625" font-size="25" fill="#2A2C34"/><text text-anchor="middle" pointer-events="none" x="0" y="5" font-size="10px" fill="#2A2C34" font-family="sans-serif"> 11/29/20…</text></g><g class="node" transform="translate(-68.92363741423652,110.53225155178957)"><circle class="outline" cx="0" cy="0" r="25" fill="#F79767" stroke="#f36924" stroke-width="2px"/><text text-anchor="middle" pointer-events="none" font-family="sans-serif" dy="1.5625" font-size="25" fill="#FFFFFF"/><text text-anchor="middle" pointer-events="none" x="0" y="5" font-size="10px" fill="#FFFFFF" font-family="sans-serif"> MSP</text></g><g class="node" transform="translate(-33.988474056424344,212.34695765574517)"><circle class="outline" cx="0" cy="0" r="25" fill="#57C7E3" stroke="#23b3d7" stroke-width="2px"/><text text-anchor="middle" pointer-events="none" font-family="sans-serif" dy="1.5625" font-size="25" fill="#2A2C34"/><text text-anchor="middle" pointer-events="none" x="0" y="5" font-size="10px" fill="#2A2C34" font-family="sans-serif"> 11/16/20…</text></g></g></svg>