<svg xmlns="http://www.w3.org/2000/svg" width="752.2379150390625" height="914.3172607421875" viewBox="-280.3982238769531 -344.8102111816406 752.2379150390625 914.3172607421875"><title>Neo4j Graph Visualization</title><desc>Created using Neo4j (http://www.neo4j.com/)</desc><g class="layer relationships"><g class="relationship" transform="translate(408.79212318715815 -19.600334146600513) rotate(246.87084754280846)"><path class="outline" fill="#A5ABB6" stroke="none" d="M 25 0.5 L 90.21554013531018 0.5 L 90.21554013531018 -0.5 L 25 -0.5 Z M 124.66085263531018 0.5 L 189.87639277062036 0.5 L 189.87639277062036 3.5 L 196.87639277062036 0 L 189.87639277062036 -3.5 L 189.87639277062036 -0.5 L 124.66085263531018 -0.5 Z"/><text text-anchor="middle" pointer-events="none" font-size="8px" fill="#000000" x="107.43819638531018" y="3" transform="rotate(180 107.43819638531018 0)" font-family="sans-serif">ORIGIN</text></g><g class="relationship" transform="translate(408.79212318715815 -19.600334146600513) rotate(445.4459206584426)"><path class="outline" fill="#A5ABB6" stroke="none" d="M 25 0.5 L 84.73744785809332 0.5 L 84.73744785809332 -0.5 L 25 -0.5 Z M 143.92885410809333 0.5 L 203.66630196618664 0.5 L 203.66630196618664 3.5 L 210.66630196618664 0 L 203.66630196618664 -3.5 L 203.66630196618664 -0.5 L 143.92885410809333 -0.5 Z"/><text text-anchor="middle" pointer-events="none" font-size="8px" fill="#000000" x="114.33315098309332" y="3" font-family="sans-serif">DESTINATION</text></g><g class="relationship" transform="translate(280.5780242766135 321.2735563244346) rotate(324.20378448036945)"><path class="outline" fill="#A5ABB6" stroke="none" d="M 25 0.5 L 69.84913628405656 0.5 L 69.84913628405656 -0.5 L 25 -0.5 Z M 104.29444878405656 0.5 L 149.1435850681131 0.5 L 149.1435850681131 3.5 L 156.1435850681131 0 L 149.1435850681131 -3.5 L 149.1435850681131 -0.5 L 104.29444878405656 -0.5 Z"/><text text-anchor="middle" pointer-events="none" font-size="8px" fill="#000000" x="87.07179253405656" y="3" font-family="sans-serif">ORIGIN</text></g><g class="relationship" transform="translate(280.5780242766135 321.2735563244346) rotate(216.69765000787646)"><path class="outline" fill="#A5ABB6" stroke="none" d="M 25 0.5 L 39.574199193158094 0.5 L 39.574199193158094 -0.5 L 25 -0.5 Z M 98.7656054431581 0.5 L 113.33980463631619 0.5 L 113.33980463631619 3.5 L 120.33980463631619 0 L 113.33980463631619 -3.5 L 113.33980463631619 -0.5 L 98.7656054431581 -0.5 Z"/><text text-anchor="middle" pointer-events="none" font-size="8px" fill="#000000" x="69.1699023181581" y="3" transform="rotate(180 69.1699023181581 0)" font-family="sans-serif">DESTINATION</text></g><g class="relationship" transform="translate(6.243988567527098 285.04220033148556) rotate(342.213703914646)"><path class="outline" fill="#A5ABB6" stroke="none" d="M 25 0.5 L 49.76511739470621 0.5 L 49.76511739470621 -0.5 L 25 -0.5 Z M 108.95652364470621 0.5 L 133.72164103941242 0.5 L 133.72164103941242 3.5 L 140.72164103941242 0 L 133.72164103941242 -3.5 L 133.72164103941242 -0.5 L 108.95652364470621 -0.5 Z"/><text text-anchor="middle" pointer-events="none" font-size="8px" fill="#000000" x="79.36082051970621" y="3" font-family="sans-serif">DESTINATION</text></g><g class="relationship" transform="translate(6.243988567527098 285.04220033148556) rotate(499.61862880679405)"><path class="outline" fill="#A5ABB6" stroke="none" d="M 25 0.5 L 50.02001340565069 0.5 L 50.02001340565069 -0.5 L 25 -0.5 Z M 84.46532590565069 0.5 L 109.48533931130137 0.5 L 109.48533931130137 3.5 L 116.48533931130137 0 L 109.48533931130137 -3.5 L 109.48533931130137 -0.5 L 84.46532590565069 -0.5 Z"/><text text-anchor="middle" pointer-events="none" font-size="8px" fill="#000000" x="67.24266965565069" y="3" transform="rotate(180 67.24266965565069 0)" font-family="sans-serif">ORIGIN</text></g><g class="relationship" transform="translate(-148.51165121747263 487.88690056307206) rotate(292.9065326410398)"><path class="outline" fill="#A5ABB6" stroke="none" d="M 25 0.5 L 39.626556850984805 0.5 L 39.626556850984805 -0.5 L 25 -0.5 Z M 74.0718693509848 0.5 L 88.69842620196961 0.5 L 88.69842620196961 3.5 L 95.69842620196961 0 L 88.69842620196961 -3.5 L 88.69842620196961 -0.5 L 74.0718693509848 -0.5 Z"/><text text-anchor="middle" pointer-events="none" font-size="8px" fill="#000000" x="56.849213100984805" y="3" font-family="sans-serif">ORIGIN</text></g><g class="relationship" transform="translate(-148.51165121747263 487.88690056307206) rotate(510.06545732931)"><path class="outline" fill="#A5ABB6" stroke="none" d="M 25 0.5 L 27.55658262303401 0.5 L 27.55658262303401 -0.5 L 25 -0.5 Z M 70.89252012303402 0.5 L 73.44910274606802 0.5 L 73.44910274606802 3.5 L 80.44910274606802 0 L 73.44910274606802 -3.5 L 73.44910274606802 -0.5 L 70.89252012303402 -0.5 Z"/><text text-anchor="middle" pointer-events="none" font-size="8px" fill="#000000" x="49.22455137303401" y="3" transform="rotate(180 49.22455137303401 0)" font-family="sans-serif">DESTIN…</text></g><g class="relationship" transform="translate(331.2595089304719 -109.87186434487998) rotate(265.1660182387691)"><path class="outline" fill="#A5ABB6" stroke="none" d="M 25 0.5 L 36.36581801994355 0.5 L 36.36581801994355 -0.5 L 25 -0.5 Z M 70.81113051994356 0.5 L 82.1769485398871 0.5 L 82.1769485398871 3.5 L 89.1769485398871 0 L 82.1769485398871 -3.5 L 82.1769485398871 -0.5 L 70.81113051994356 -0.5 Z"/><text text-anchor="middle" pointer-events="none" font-size="8px" fill="#000000" x="53.58847426994355" y="3" transform="rotate(180 53.58847426994355 0)" font-family="sans-serif">ORIGIN</text></g><g class="relationship" transform="translate(331.2595089304719 -109.87186434487998) rotate(508.9311455193987)"><path class="outline" fill="#A5ABB6" stroke="none" d="M 25 0.5 L 42.27352656077417 0.5 L 42.27352656077417 -0.5 L 25 -0.5 Z M 101.46493281077417 0.5 L 118.73845937154834 0.5 L 118.73845937154834 3.5 L 125.73845937154834 0 L 118.73845937154834 -3.5 L 118.73845937154834 -0.5 L 101.46493281077417 -0.5 Z"/><text text-anchor="middle" pointer-events="none" font-size="8px" fill="#000000" x="71.86922968577417" y="3" transform="rotate(180 71.86922968577417 0)" font-family="sans-serif">DESTINATION</text></g><g class="relationship" transform="translate(169.86985391114348 110.0734419741847) rotate(282.7917065478479)"><path class="outline" fill="#A5ABB6" stroke="none" d="M 25 0.5 L 52.16329114480229 0.5 L 52.16329114480229 -0.5 L 25 -0.5 Z M 86.60860364480229 0.5 L 113.77189478960457 0.5 L 113.77189478960457 3.5 L 120.77189478960457 0 L 113.77189478960457 -3.5 L 113.77189478960457 -0.5 L 86.60860364480229 -0.5 Z"/><text text-anchor="middle" pointer-events="none" font-size="8px" fill="#000000" x="69.38594739480229" y="3" font-family="sans-serif">ORIGIN</text></g><g class="relationship" transform="translate(169.86985391114348 110.0734419741847) rotate(452.6822031015548)"><path class="outline" fill="#A5ABB6" stroke="none" d="M 25 0.5 L 29.14557066088264 0.5 L 29.14557066088264 -0.5 L 25 -0.5 Z M 88.33697691088264 0.5 L 92.48254757176528 0.5 L 92.48254757176528 3.5 L 99.48254757176528 0 L 92.48254757176528 -3.5 L 92.48254757176528 -0.5 L 88.33697691088264 -0.5 Z"/><text text-anchor="middle" pointer-events="none" font-size="8px" fill="#000000" x="58.74127378588264" y="3" transform="rotate(180 58.74127378588264 0)" font-family="sans-serif">DESTINATION</text></g><g class="relationship" transform="translate(276.05242270348424 -133.36298611401446) rotate(296.7908808180482)"><path class="outline" fill="#A5ABB6" stroke="none" d="M 25 0.5 L 29.84528202327997 0.5 L 29.84528202327997 -0.5 L 25 -0.5 Z M 64.29059452327996 0.5 L 69.13587654655994 0.5 L 69.13587654655994 3.5 L 76.13587654655994 0 L 69.13587654655994 -3.5 L 69.13587654655994 -0.5 L 64.29059452327996 -0.5 Z"/><text text-anchor="middle" pointer-events="none" font-size="8px" fill="#000000" x="47.06793827327997" y="3" font-family="sans-serif">ORIGIN</text></g><g class="relationship" transform="translate(276.05242270348424 -133.36298611401446) rotate(486.1189099493506)"><path class="outline" fill="#A5ABB6" stroke="none" d="M 25 0.5 L 29.594916406312457 0.5 L 29.594916406312457 -0.5 L 25 -0.5 Z M 88.78632265631245 0.5 L 93.38123906262491 0.5 L 93.38123906262491 3.5 L 100.38123906262491 0 L 93.38123906262491 -3.5 L 93.38123906262491 -0.5 L 88.78632265631245 -0.5 Z"/><text text-anchor="middle" pointer-events="none" font-size="8px" fill="#000000" x="59.19061953131246" y="3" transform="rotate(180 59.19061953131246 0)" font-family="sans-serif">DESTINATION</text></g><g class="relationship" transform="translate(441.5384818030502 -108.1986658746856) rotate(223.91517149594404)"><path class="outline" fill="#A5ABB6" stroke="none" d="M 25 0.5 L 62.49912683770772 0.5 L 62.49912683770772 -0.5 L 25 -0.5 Z M 96.94443933770772 0.5 L 134.44356617541544 0.5 L 134.44356617541544 3.5 L 141.44356617541544 0 L 134.44356617541544 -3.5 L 134.44356617541544 -0.5 L 96.94443933770772 -0.5 Z"/><text text-anchor="middle" pointer-events="none" font-size="8px" fill="#000000" x="79.72178308770772" y="3" transform="rotate(180 79.72178308770772 0)" font-family="sans-serif">ORIGIN</text></g><g class="relationship" transform="translate(441.5384818030502 -108.1986658746856) rotate(449.60234237834925)"><path class="outline" fill="#A5ABB6" stroke="none" d="M 25 0.5 L 60.644573500565585 0.5 L 60.644573500565585 -0.5 L 25 -0.5 Z M 119.83597975056558 0.5 L 155.48055325113117 0.5 L 155.48055325113117 3.5 L 162.48055325113117 0 L 155.48055325113117 -3.5 L 155.48055325113117 -0.5 L 119.83597975056558 -0.5 Z"/><text text-anchor="middle" pointer-events="none" font-size="8px" fill="#000000" x="90.24027662556558" y="3" font-family="sans-serif">DESTINATION</text></g><g class="relationship" transform="translate(305.8015254629466 154.14000848891683) rotate(331.3526389375342)"><path class="outline" fill="#A5ABB6" stroke="none" d="M 25 0.5 L 44.980968861402715 0.5 L 44.980968861402715 -0.5 L 25 -0.5 Z M 104.17237511140272 0.5 L 124.15334397280543 0.5 L 124.15334397280543 3.5 L 131.15334397280543 0 L 124.15334397280543 -3.5 L 124.15334397280543 -0.5 L 104.17237511140272 -0.5 Z"/><text text-anchor="middle" pointer-events="none" font-size="8px" fill="#000000" x="74.57667198640272" y="3" font-family="sans-serif">DESTINATION</text></g><g class="relationship" transform="translate(305.8015254629466 154.14000848891683) rotate(510.4763180821291)"><path class="outline" fill="#A5ABB6" stroke="none" d="M 25 0.5 L 60.73263232880021 0.5 L 60.73263232880021 -0.5 L 25 -0.5 Z M 95.17794482880021 0.5 L 130.91057715760041 0.5 L 130.91057715760041 3.5 L 137.91057715760041 0 L 130.91057715760041 -3.5 L 130.91057715760041 -0.5 L 95.17794482880021 -0.5 Z"/><text text-anchor="middle" pointer-events="none" font-size="8px" fill="#000000" x="77.95528857880021" y="3" transform="rotate(180 77.95528857880021 0)" font-family="sans-serif">ORIGIN</text></g><g class="relationship" transform="translate(338.28395851187446 305.35055500876655) rotate(314.74155281528067)"><path class="outline" fill="#A5ABB6" stroke="none" d="M 25 0.5 L 30.278926135141674 0.5 L 30.278926135141674 -0.5 L 25 -0.5 Z M 89.47033238514167 0.5 L 94.74925852028335 0.5 L 94.74925852028335 3.5 L 101.74925852028335 0 L 94.74925852028335 -3.5 L 94.74925852028335 -0.5 L 89.47033238514167 -0.5 Z"/><text text-anchor="middle" pointer-events="none" font-size="8px" fill="#000000" x="59.874629260141674" y="3" font-family="sans-serif">DESTINATION</text></g><g class="relationship" transform="translate(338.28395851187446 305.35055500876655) rotate(202.1506957583738)"><path class="outline" fill="#A5ABB6" stroke="none" d="M 25 0.5 L 73.33925311227878 0.5 L 73.33925311227878 -0.5 L 25 -0.5 Z M 107.78456561227878 0.5 L 156.12381872455757 0.5 L 156.12381872455757 3.5 L 163.12381872455757 0 L 156.12381872455757 -3.5 L 156.12381872455757 -0.5 L 107.78456561227878 -0.5 Z"/><text text-anchor="middle" pointer-events="none" font-size="8px" fill="#000000" x="90.56190936227878" y="3" transform="rotate(180 90.56190936227878 0)" font-family="sans-serif">ORIGIN</text></g><g class="relationship" transform="translate(198.86878827800274 -214.51431879335044) rotate(355.74765691082416)"><path class="outline" fill="#A5ABB6" stroke="none" d="M 25 0.5 L 40.831373236971906 0.5 L 40.831373236971906 -0.5 L 25 -0.5 Z M 75.2766857369719 0.5 L 91.10805897394381 0.5 L 91.10805897394381 3.5 L 98.10805897394381 0 L 91.10805897394381 -3.5 L 91.10805897394381 -0.5 L 75.2766857369719 -0.5 Z"/><text text-anchor="middle" pointer-events="none" font-size="8px" fill="#000000" x="58.054029486971906" y="3" font-family="sans-serif">ORIGIN</text></g><g class="relationship" transform="translate(198.86878827800274 -214.51431879335044) rotate(526.6539753456168)"><path class="outline" fill="#A5ABB6" stroke="none" d="M 25 0.5 L 34.739417833871784 0.5 L 34.739417833871784 -0.5 L 25 -0.5 Z M 93.93082408387178 0.5 L 103.67024191774357 0.5 L 103.67024191774357 3.5 L 110.67024191774357 0 L 103.67024191774357 -3.5 L 103.67024191774357 -0.5 L 93.93082408387178 -0.5 Z"/><text text-anchor="middle" pointer-events="none" font-size="8px" fill="#000000" x="64.33512095887178" y="3" transform="rotate(180 64.33512095887178 0)" font-family="sans-serif">DESTINATION</text></g><g class="relationship" transform="translate(134.2200733977242 22.280922625054075) rotate(251.8504027254529)"><path class="outline" fill="#A5ABB6" stroke="none" d="M 25 0.5 L 75.02271768475077 0.5 L 75.02271768475077 -0.5 L 25 -0.5 Z M 134.21412393475077 0.5 L 184.23684161950155 0.5 L 184.23684161950155 3.5 L 191.23684161950155 0 L 184.23684161950155 -3.5 L 184.23684161950155 -0.5 L 134.21412393475077 -0.5 Z"/><text text-anchor="middle" pointer-events="none" font-size="8px" fill="#000000" x="104.61842080975077" y="3" transform="rotate(180 104.61842080975077 0)" font-family="sans-serif">DESTINATION</text></g><g class="relationship" transform="translate(134.2200733977242 22.280922625054075) rotate(441.99726559255)"><path class="outline" fill="#A5ABB6" stroke="none" d="M 25 0.5 L 86.38981206116443 0.5 L 86.38981206116443 -0.5 L 25 -0.5 Z M 120.83512456116443 0.5 L 182.22493662232887 0.5 L 182.22493662232887 3.5 L 189.22493662232887 0 L 182.22493662232887 -3.5 L 182.22493662232887 -0.5 L 120.83512456116443 -0.5 Z"/><text text-anchor="middle" pointer-events="none" font-size="8px" fill="#000000" x="103.61246831116443" y="3" font-family="sans-serif">ORIGIN</text></g><g class="relationship" transform="translate(158.24978348991104 -258.63897350887436) rotate(372.0895708492521)"><path class="outline" fill="#A5ABB6" stroke="none" d="M 25 0.5 L 62.82438526734616 0.5 L 62.82438526734616 -0.5 L 25 -0.5 Z M 97.26969776734616 0.5 L 135.09408303469232 0.5 L 135.09408303469232 3.5 L 142.09408303469232 0 L 135.09408303469232 -3.5 L 135.09408303469232 -0.5 L 97.26969776734616 -0.5 Z"/><text text-anchor="middle" pointer-events="none" font-size="8px" fill="#000000" x="80.04704151734616" y="3" font-family="sans-serif">ORIGIN</text></g><g class="relationship" transform="translate(158.24978348991104 -258.63897350887436) rotate(500.4598068342354)"><path class="outline" fill="#A5ABB6" stroke="none" d="M 25 0.5 L 26.156034419516835 0.5 L 26.156034419516835 -0.5 L 25 -0.5 Z M 85.34744066951683 0.5 L 86.50347508903367 0.5 L 86.50347508903367 3.5 L 93.50347508903367 0 L 86.50347508903367 -3.5 L 86.50347508903367 -0.5 L 85.34744066951683 -0.5 Z"/><text text-anchor="middle" pointer-events="none" font-size="8px" fill="#000000" x="55.751737544516835" y="3" transform="rotate(180 55.751737544516835 0)" font-family="sans-serif">DESTINATION</text></g><g class="relationship" transform="translate(176.12128725315918 -315.8102004549354) rotate(392.34939817796516)"><path class="outline" fill="#A5ABB6" stroke="none" d="M 25 0.5 L 65.40217858085241 0.5 L 65.40217858085241 -0.5 L 25 -0.5 Z M 99.84749108085241 0.5 L 140.24966966170481 0.5 L 140.24966966170481 3.5 L 147.24966966170481 0 L 140.24966966170481 -3.5 L 140.24966966170481 -0.5 L 99.84749108085241 -0.5 Z"/><text text-anchor="middle" pointer-events="none" font-size="8px" fill="#000000" x="82.62483483085241" y="3" font-family="sans-serif">ORIGIN</text></g><g class="relationship" transform="translate(176.12128725315918 -315.8102004549354) rotate(489.4848743415838)"><path class="outline" fill="#A5ABB6" stroke="none" d="M 25 0.5 L 52.8165320663679 0.5 L 52.8165320663679 -0.5 L 25 -0.5 Z M 112.0079383163679 0.5 L 139.8244703827358 0.5 L 139.8244703827358 3.5 L 146.8244703827358 0 L 139.8244703827358 -3.5 L 139.8244703827358 -0.5 L 112.0079383163679 -0.5 Z"/><text text-anchor="middle" pointer-events="none" font-size="8px" fill="#000000" x="82.4122351913679" y="3" transform="rotate(180 82.4122351913679 0)" font-family="sans-serif">DESTINATION</text></g><g class="relationship" transform="translate(216.6948663817738 -271.7954223484328) rotate(384.64784188437574)"><path class="outline" fill="#A5ABB6" stroke="none" d="M 25 0.5 L 37.00891265495529 0.5 L 37.00891265495529 -0.5 L 25 -0.5 Z M 71.45422515495528 0.5 L 83.46313780991058 0.5 L 83.46313780991058 3.5 L 90.46313780991058 0 L 83.46313780991058 -3.5 L 83.46313780991058 -0.5 L 71.45422515495528 -0.5 Z"/><text text-anchor="middle" pointer-events="none" font-size="8px" fill="#000000" x="54.23156890495529" y="3" font-family="sans-serif">ORIGIN</text></g><g class="relationship" transform="translate(216.6948663817738 -271.7954223484328) rotate(509.40356010497413)"><path class="outline" fill="#A5ABB6" stroke="none" d="M 25 0.5 L 53.937848961257686 0.5 L 53.937848961257686 -0.5 L 25 -0.5 Z M 113.12925521125769 0.5 L 142.06710417251537 0.5 L 142.06710417251537 3.5 L 149.06710417251537 0 L 142.06710417251537 -3.5 L 142.06710417251537 -0.5 L 113.12925521125769 -0.5 Z"/><text text-anchor="middle" pointer-events="none" font-size="8px" fill="#000000" x="83.53355208625769" y="3" transform="rotate(180 83.53355208625769 0)" font-family="sans-serif">DESTINATION</text></g><g class="relationship" transform="translate(133.464370975816 -133.92433725086295) rotate(334.50889040149514)"><path class="outline" fill="#A5ABB6" stroke="none" d="M 25 0.5 L 83.5110701312091 0.5 L 83.5110701312091 -0.5 L 25 -0.5 Z M 117.9563826312091 0.5 L 176.4674527624182 0.5 L 176.4674527624182 3.5 L 183.4674527624182 0 L 176.4674527624182 -3.5 L 176.4674527624182 -0.5 L 117.9563826312091 -0.5 Z"/><text text-anchor="middle" pointer-events="none" font-size="8px" fill="#000000" x="100.7337263812091" y="3" font-family="sans-serif">ORIGIN</text></g><g class="relationship" transform="translate(133.464370975816 -133.92433725086295) rotate(503.0815189524738)"><path class="outline" fill="#A5ABB6" stroke="none" d="M 25 0.5 L 80.92724365442704 0.5 L 80.92724365442704 -0.5 L 25 -0.5 Z M 140.11864990442706 0.5 L 196.0458935588541 0.5 L 196.0458935588541 3.5 L 203.0458935588541 0 L 196.0458935588541 -3.5 L 196.0458935588541 -0.5 L 140.11864990442706 -0.5 Z"/><text text-anchor="middle" pointer-events="none" font-size="8px" fill="#000000" x="110.52294677942704" y="3" transform="rotate(180 110.52294677942704 0)" font-family="sans-serif">DESTINATION</text></g><g class="relationship" transform="translate(55.229326659711234 128.25610094846164) rotate(230.26101375602303)"><path class="outline" fill="#A5ABB6" stroke="none" d="M 25 0.5 L 48.3113173462546 0.5 L 48.3113173462546 -0.5 L 25 -0.5 Z M 107.5027235962546 0.5 L 130.8140409425092 0.5 L 130.8140409425092 3.5 L 137.8140409425092 0 L 130.8140409425092 -3.5 L 130.8140409425092 -0.5 L 107.5027235962546 -0.5 Z"/><text text-anchor="middle" pointer-events="none" font-size="8px" fill="#000000" x="77.9070204712546" y="3" transform="rotate(180 77.9070204712546 0)" font-family="sans-serif">DESTINATION</text></g><g class="relationship" transform="translate(55.229326659711234 128.25610094846164) rotate(404.2933072686281)"><path class="outline" fill="#A5ABB6" stroke="none" d="M 25 0.5 L 55.289585353187235 0.5 L 55.289585353187235 -0.5 L 25 -0.5 Z M 89.73489785318723 0.5 L 120.02448320637447 0.5 L 120.02448320637447 3.5 L 127.02448320637447 0 L 120.02448320637447 -3.5 L 120.02448320637447 -0.5 L 89.73489785318723 -0.5 Z"/><text text-anchor="middle" pointer-events="none" font-size="8px" fill="#000000" x="72.51224160318723" y="3" font-family="sans-serif">ORIGIN</text></g><g class="relationship" transform="translate(75.62224642072044 34.512847066629725) rotate(267.6958979406934)"><path class="outline" fill="#A5ABB6" stroke="none" d="M 25 0.5 L 75.8474823425426 0.5 L 75.8474823425426 -0.5 L 25 -0.5 Z M 135.0388885925426 0.5 L 185.8863709350852 0.5 L 185.8863709350852 3.5 L 192.8863709350852 0 L 185.8863709350852 -3.5 L 185.8863709350852 -0.5 L 135.0388885925426 -0.5 Z"/><text text-anchor="middle" pointer-events="none" font-size="8px" fill="#000000" x="105.4431854675426" y="3" transform="rotate(180 105.4431854675426 0)" font-family="sans-serif">DESTINATION</text></g><g class="relationship" transform="translate(75.62224642072044 34.512847066629725) rotate(426.13934555248125)"><path class="outline" fill="#A5ABB6" stroke="none" d="M 25 0.5 L 88.57192104312955 0.5 L 88.57192104312955 -0.5 L 25 -0.5 Z M 123.01723354312955 0.5 L 186.5891545862591 0.5 L 186.5891545862591 3.5 L 193.5891545862591 0 L 186.5891545862591 -3.5 L 186.5891545862591 -0.5 L 123.01723354312955 -0.5 Z"/><text text-anchor="middle" pointer-events="none" font-size="8px" fill="#000000" x="105.79457729312955" y="3" font-family="sans-serif">ORIGIN</text></g><g class="relationship" transform="translate(7.247397436092104 164.11127897974535) rotate(250.79399898428773)"><path class="outline" fill="#A5ABB6" stroke="none" d="M 25 0.5 L 52.1771362878269 0.5 L 52.1771362878269 -0.5 L 25 -0.5 Z M 111.3685425378269 0.5 L 138.5456788256538 0.5 L 138.5456788256538 3.5 L 145.5456788256538 0 L 138.5456788256538 -3.5 L 138.5456788256538 -0.5 L 111.3685425378269 -0.5 Z"/><text text-anchor="middle" pointer-events="none" font-size="8px" fill="#000000" x="81.7728394128269" y="3" transform="rotate(180 81.7728394128269 0)" font-family="sans-serif">DESTINATION</text></g><g class="relationship" transform="translate(7.247397436092104 164.11127897974535) rotate(384.15161419868207)"><path class="outline" fill="#A5ABB6" stroke="none" d="M 25 0.5 L 65.19679418500388 0.5 L 65.19679418500388 -0.5 L 25 -0.5 Z M 99.64210668500388 0.5 L 139.83890087000776 0.5 L 139.83890087000776 3.5 L 146.83890087000776 0 L 139.83890087000776 -3.5 L 139.83890087000776 -0.5 L 99.64210668500388 -0.5 Z"/><text text-anchor="middle" pointer-events="none" font-size="8px" fill="#000000" x="82.41945043500388" y="3" font-family="sans-serif">ORIGIN</text></g><g class="relationship" transform="translate(229.8174885983944 111.70906806893879) rotate(259.10647778498685)"><path class="outline" fill="#A5ABB6" stroke="none" d="M 25 0.5 L 40.11844375783866 0.5 L 40.11844375783866 -0.5 L 25 -0.5 Z M 99.30985000783866 0.5 L 114.42829376567732 0.5 L 114.42829376567732 3.5 L 121.42829376567732 0 L 114.42829376567732 -3.5 L 114.42829376567732 -0.5 L 99.30985000783866 -0.5 Z"/><text text-anchor="middle" pointer-events="none" font-size="8px" fill="#000000" x="69.71414688283866" y="3" transform="rotate(180 69.71414688283866 0)" font-family="sans-serif">DESTINATION</text></g><g class="relationship" transform="translate(229.8174885983944 111.70906806893879) rotate(478.1913409236789)"><path class="outline" fill="#A5ABB6" stroke="none" d="M 25 0.5 L 48.890485394866644 0.5 L 48.890485394866644 -0.5 L 25 -0.5 Z M 83.33579789486664 0.5 L 107.22628328973329 0.5 L 107.22628328973329 3.5 L 114.22628328973329 0 L 107.22628328973329 -3.5 L 107.22628328973329 -0.5 L 83.33579789486664 -0.5 Z"/><text text-anchor="middle" pointer-events="none" font-size="8px" fill="#000000" x="66.11314164486664" y="3" transform="rotate(180 66.11314164486664 0)" font-family="sans-serif">ORIGIN</text></g><g class="relationship" transform="translate(295.6879207916853 263.21266966027616) rotate(340.0331693547008)"><path class="outline" fill="#A5ABB6" stroke="none" d="M 25 0.5 L 37.02742029431275 0.5 L 37.02742029431275 -0.5 L 25 -0.5 Z M 96.21882654431275 0.5 L 108.2462468386255 0.5 L 108.2462468386255 3.5 L 115.2462468386255 0 L 108.2462468386255 -3.5 L 108.2462468386255 -0.5 L 96.21882654431275 -0.5 Z"/><text text-anchor="middle" pointer-events="none" font-size="8px" fill="#000000" x="66.62312341931275" y="3" font-family="sans-serif">DESTINATION</text></g><g class="relationship" transform="translate(295.6879207916853 263.21266966027616) rotate(192.33745396213135)"><path class="outline" fill="#A5ABB6" stroke="none" d="M 25 0.5 L 46.655044250935376 0.5 L 46.655044250935376 -0.5 L 25 -0.5 Z M 81.10035675093538 0.5 L 102.75540100187075 0.5 L 102.75540100187075 3.5 L 109.75540100187075 0 L 102.75540100187075 -3.5 L 102.75540100187075 -0.5 L 81.10035675093538 -0.5 Z"/><text text-anchor="middle" pointer-events="none" font-size="8px" fill="#000000" x="63.877700500935376" y="3" transform="rotate(180 63.877700500935376 0)" font-family="sans-serif">ORIGIN</text></g><g class="relationship" transform="translate(335.4038019437841 206.22927586982024) rotate(310.2403095916335)"><path class="outline" fill="#A5ABB6" stroke="none" d="M 25 0.5 L 50.05965028455303 0.5 L 50.05965028455303 -0.5 L 25 -0.5 Z M 109.25105653455303 0.5 L 134.31070681910606 0.5 L 134.31070681910606 3.5 L 141.31070681910606 0 L 134.31070681910606 -3.5 L 134.31070681910606 -0.5 L 109.25105653455303 -0.5 Z"/><text text-anchor="middle" pointer-events="none" font-size="8px" fill="#000000" x="79.65535340955303" y="3" font-family="sans-serif">DESTINATION</text></g><g class="relationship" transform="translate(335.4038019437841 206.22927586982024) rotate(530.6579391872315)"><path class="outline" fill="#A5ABB6" stroke="none" d="M 25 0.5 L 66.10863077531377 0.5 L 66.10863077531377 -0.5 L 25 -0.5 Z M 100.55394327531377 0.5 L 141.66257405062754 0.5 L 141.66257405062754 3.5 L 148.66257405062754 0 L 141.66257405062754 -3.5 L 141.66257405062754 -0.5 L 100.55394327531377 -0.5 Z"/><text text-anchor="middle" pointer-events="none" font-size="8px" fill="#000000" x="83.33128702531377" y="3" transform="rotate(180 83.33128702531377 0)" font-family="sans-serif">ORIGIN</text></g><g class="relationship" transform="translate(71.13895084088021 385.2476723313511) rotate(301.63183322917473)"><path class="outline" fill="#A5ABB6" stroke="none" d="M 25 0.5 L 55.47708181202431 0.5 L 55.47708181202431 -0.5 L 25 -0.5 Z M 114.66848806202431 0.5 L 145.14556987404862 0.5 L 145.14556987404862 3.5 L 152.14556987404862 0 L 145.14556987404862 -3.5 L 145.14556987404862 -0.5 L 114.66848806202431 -0.5 Z"/><text text-anchor="middle" pointer-events="none" font-size="8px" fill="#000000" x="85.07278493702431" y="3" font-family="sans-serif">DESTINATION</text></g><g class="relationship" transform="translate(71.13895084088021 385.2476723313511) rotate(182.83178129327592)"><path class="outline" fill="#A5ABB6" stroke="none" d="M 25 0.5 L 65.7185367054101 0.5 L 65.7185367054101 -0.5 L 25 -0.5 Z M 100.1638492054101 0.5 L 140.8823859108202 0.5 L 140.8823859108202 3.5 L 147.8823859108202 0 L 140.8823859108202 -3.5 L 140.8823859108202 -0.5 L 100.1638492054101 -0.5 Z"/><text text-anchor="middle" pointer-events="none" font-size="8px" fill="#000000" x="82.9411929554101" y="3" transform="rotate(180 82.9411929554101 0)" font-family="sans-serif">ORIGIN</text></g><g class="relationship" transform="translate(42.725910817515654 332.54674388546164) rotate(321.032749634509)"><path class="outline" fill="#A5ABB6" stroke="none" d="M 25 0.5 L 44.92215539639582 0.5 L 44.92215539639582 -0.5 L 25 -0.5 Z M 104.11356164639582 0.5 L 124.03571704279165 0.5 L 124.03571704279165 3.5 L 131.03571704279165 0 L 124.03571704279165 -3.5 L 124.03571704279165 -0.5 L 104.11356164639582 -0.5 Z"/><text text-anchor="middle" pointer-events="none" font-size="8px" fill="#000000" x="74.51785852139582" y="3" font-family="sans-serif">DESTINATION</text></g><g class="relationship" transform="translate(42.725910817515654 332.54674388546164) rotate(522.9797653173247)"><path class="outline" fill="#A5ABB6" stroke="none" d="M 25 0.5 L 54.71031775704638 0.5 L 54.71031775704638 -0.5 L 25 -0.5 Z M 89.15563025704638 0.5 L 118.86594801409277 0.5 L 118.86594801409277 3.5 L 125.86594801409277 0 L 118.86594801409277 -3.5 L 118.86594801409277 -0.5 L 89.15563025704638 -0.5 Z"/><text text-anchor="middle" pointer-events="none" font-size="8px" fill="#000000" x="71.93297400704638" y="3" transform="rotate(180 71.93297400704638 0)" font-family="sans-serif">ORIGIN</text></g><g class="relationship" transform="translate(-188.74271628941295 -79.7036234015628) rotate(390.60996651476995)"><path class="outline" fill="#A5ABB6" stroke="none" d="M 25 0.5 L 60.544929915792196 0.5 L 60.544929915792196 -0.5 L 25 -0.5 Z M 94.9902424157922 0.5 L 130.5351723315844 0.5 L 130.5351723315844 3.5 L 137.5351723315844 0 L 130.5351723315844 -3.5 L 130.5351723315844 -0.5 L 94.9902424157922 -0.5 Z"/><text text-anchor="middle" pointer-events="none" font-size="8px" fill="#000000" x="77.7675861657922" y="3" font-family="sans-serif">ORIGIN</text></g><g class="relationship" transform="translate(-188.74271628941295 -79.7036234015628) rotate(442.27026121960273)"><path class="outline" fill="#A5ABB6" stroke="none" d="M 25 0.5 L 26.79170333138434 0.5 L 26.79170333138434 -0.5 L 25 -0.5 Z M 57.24092208138434 0.5 L 59.03262541276868 0.5 L 59.03262541276868 3.5 L 66.03262541276868 0 L 59.03262541276868 -3.5 L 59.03262541276868 -0.5 L 57.24092208138434 -0.5 Z"/><text text-anchor="middle" pointer-events="none" font-size="8px" fill="#000000" x="42.01631270638434" y="3" font-family="sans-serif">DES…</text></g><g class="relationship" transform="translate(-179.4267819296399 203.29285875364747) rotate(270.8701092097016)"><path class="outline" fill="#A5ABB6" stroke="none" d="M 25 0.5 L 63.310924786371515 0.5 L 63.310924786371515 -0.5 L 25 -0.5 Z M 122.50233103637152 0.5 L 160.81325582274303 0.5 L 160.81325582274303 3.5 L 167.81325582274303 0 L 160.81325582274303 -3.5 L 160.81325582274303 -0.5 L 122.50233103637152 -0.5 Z"/><text text-anchor="middle" pointer-events="none" font-size="8px" fill="#000000" x="92.90662791137152" y="3" font-family="sans-serif">DESTINATION</text></g><g class="relationship" transform="translate(-179.4267819296399 203.29285875364747) rotate(425.8112111759607)"><path class="outline" fill="#A5ABB6" stroke="none" d="M 25 0.5 L 74.3298048464342 0.5 L 74.3298048464342 -0.5 L 25 -0.5 Z M 108.7751173464342 0.5 L 158.1049221928684 0.5 L 158.1049221928684 3.5 L 165.1049221928684 0 L 158.1049221928684 -3.5 L 158.1049221928684 -0.5 L 108.7751173464342 -0.5 Z"/><text text-anchor="middle" pointer-events="none" font-size="8px" fill="#000000" x="91.5524610964342" y="3" font-family="sans-serif">ORIGIN</text></g><g class="relationship" transform="translate(-95.68004758156145 -141.04125275119728) rotate(345.46043978566036)"><path class="outline" fill="#A5ABB6" stroke="none" d="M 25 0.5 L 63.23747437440048 0.5 L 63.23747437440048 -0.5 L 25 -0.5 Z M 97.68278687440048 0.5 L 135.92026124880095 0.5 L 135.92026124880095 3.5 L 142.92026124880095 0 L 135.92026124880095 -3.5 L 135.92026124880095 -0.5 L 97.68278687440048 -0.5 Z"/><text text-anchor="middle" pointer-events="none" font-size="8px" fill="#000000" x="80.46013062440048" y="3" font-family="sans-serif">ORIGIN</text></g><g class="relationship" transform="translate(-95.68004758156145 -141.04125275119728) rotate(478.071236478124)"><path class="outline" fill="#A5ABB6" stroke="none" d="M 25 0.5 L 52.77771434644761 0.5 L 52.77771434644761 -0.5 L 25 -0.5 Z M 111.96912059644761 0.5 L 139.74683494289522 0.5 L 139.74683494289522 3.5 L 146.74683494289522 0 L 139.74683494289522 -3.5 L 139.74683494289522 -0.5 L 111.96912059644761 -0.5 Z"/><text text-anchor="middle" pointer-events="none" font-size="8px" fill="#000000" x="82.37341747144761" y="3" transform="rotate(180 82.37341747144761 0)" font-family="sans-serif">DESTINATION</text></g><g class="relationship" transform="translate(-3.514973247538474 -46.89954962821589) rotate(364.1213614992059)"><path class="outline" fill="#A5ABB6" stroke="none" d="M 25 0.5 L 70.00079614353311 0.5 L 70.00079614353311 -0.5 L 25 -0.5 Z M 129.1922023935331 0.5 L 174.19299853706622 0.5 L 174.19299853706622 3.5 L 181.19299853706622 0 L 174.19299853706622 -3.5 L 174.19299853706622 -0.5 L 129.1922023935331 -0.5 Z"/><text text-anchor="middle" pointer-events="none" font-size="8px" fill="#000000" x="99.59649926853311" y="3" font-family="sans-serif">DESTINATION</text></g><g class="relationship" transform="translate(-3.514973247538474 -46.89954962821589) rotate(521.6425568623057)"><path class="outline" fill="#A5ABB6" stroke="none" d="M 25 0.5 L 70.40680735818307 0.5 L 70.40680735818307 -0.5 L 25 -0.5 Z M 104.85211985818307 0.5 L 150.25892721636615 0.5 L 150.25892721636615 3.5 L 157.25892721636615 0 L 150.25892721636615 -3.5 L 150.25892721636615 -0.5 L 104.85211985818307 -0.5 Z"/><text text-anchor="middle" pointer-events="none" font-size="8px" fill="#000000" x="87.62946360818307" y="3" transform="rotate(180 87.62946360818307 0)" font-family="sans-serif">ORIGIN</text></g><g class="relationship" transform="translate(-101.90848166910442 525.512927855002) rotate(270.1448330838173)"><path class="outline" fill="#A5ABB6" stroke="none" d="M 25 0.5 L 53.68073161662139 0.5 L 53.68073161662139 -0.5 L 25 -0.5 Z M 88.12604411662139 0.5 L 116.80677573324277 0.5 L 116.80677573324277 3.5 L 123.80677573324277 0 L 116.80677573324277 -3.5 L 116.80677573324277 -0.5 L 88.12604411662139 -0.5 Z"/><text text-anchor="middle" pointer-events="none" font-size="8px" fill="#000000" x="70.90338786662139" y="3" font-family="sans-serif">ORIGIN</text></g><g class="relationship" transform="translate(-101.90848166910442 525.512927855002) rotate(533.7982773823642)"><path class="outline" fill="#A5ABB6" stroke="none" d="M 25 0.5 L 36.302910574114506 0.5 L 36.302910574114506 -0.5 L 25 -0.5 Z M 95.4943168241145 0.5 L 106.79722739822901 0.5 L 106.79722739822901 3.5 L 113.79722739822901 0 L 106.79722739822901 -3.5 L 106.79722739822901 -0.5 L 95.4943168241145 -0.5 Z"/><text text-anchor="middle" pointer-events="none" font-size="8px" fill="#000000" x="65.8986136991145" y="3" transform="rotate(180 65.8986136991145 0)" font-family="sans-serif">DESTINATION</text></g><g class="relationship" transform="translate(-191.79952695834376 446.2865787202525) rotate(322.3741709245885)"><path class="outline" fill="#A5ABB6" stroke="none" d="M 25 0.5 L 36.26316904751125 0.5 L 36.26316904751125 -0.5 L 25 -0.5 Z M 70.70848154751124 0.5 L 81.9716505950225 0.5 L 81.9716505950225 3.5 L 88.9716505950225 0 L 81.9716505950225 -3.5 L 81.9716505950225 -0.5 L 70.70848154751124 -0.5 Z"/><text text-anchor="middle" pointer-events="none" font-size="8px" fill="#000000" x="53.48582529751125" y="3" font-family="sans-serif">ORIGIN</text></g><g class="relationship" transform="translate(-191.79952695834376 446.2865787202525) rotate(477.0415771822718)"><path class="outline" fill="#A5ABB6" stroke="none" d="M 25 0.5 L 25.056707632167708 0.5 L 25.056707632167708 -0.5 L 25 -0.5 Z M 73.7285826321677 0.5 L 73.78529026433542 0.5 L 73.78529026433542 3.5 L 80.78529026433542 0 L 73.78529026433542 -3.5 L 73.78529026433542 -0.5 L 73.7285826321677 -0.5 Z"/><text text-anchor="middle" pointer-events="none" font-size="8px" fill="#000000" x="49.39264513216771" y="3" transform="rotate(180 49.39264513216771 0)" font-family="sans-serif">DESTINA…</text></g><g class="relationship" transform="translate(-251.39822063809606 439.3747970882451) rotate(337.30718866592053)"><path class="outline" fill="#A5ABB6" stroke="none" d="M 25 0.5 L 60.497855001251125 0.5 L 60.497855001251125 -0.5 L 25 -0.5 Z M 94.94316750125112 0.5 L 130.44102250250225 0.5 L 130.44102250250225 3.5 L 137.44102250250225 0 L 130.44102250250225 -3.5 L 130.44102250250225 -0.5 L 94.94316750125112 -0.5 Z"/><text text-anchor="middle" pointer-events="none" font-size="8px" fill="#000000" x="77.72051125125112" y="3" font-family="sans-serif">ORIGIN</text></g><g class="relationship" transform="translate(-251.39822063809606 439.3747970882451) rotate(443.50994241726187)"><path class="outline" fill="#A5ABB6" stroke="none" d="M 25 0.5 L 25.724320503619033 0.5 L 25.724320503619033 -0.5 L 25 -0.5 Z M 69.06025800361903 0.5 L 69.78457850723807 0.5 L 69.78457850723807 3.5 L 76.78457850723807 0 L 69.78457850723807 -3.5 L 69.78457850723807 -0.5 L 69.06025800361903 -0.5 Z"/><text text-anchor="middle" pointer-events="none" font-size="8px" fill="#000000" x="47.39228925361903" y="3" font-family="sans-serif">DESTIN…</text></g><g class="relationship" transform="translate(-225.33879804207703 385.4948770243359) rotate(355.9397401950117)"><path class="outline" fill="#A5ABB6" stroke="none" d="M 25 0.5 L 41.33633947340604 0.5 L 41.33633947340604 -0.5 L 25 -0.5 Z M 75.78165197340604 0.5 L 92.11799144681208 0.5 L 92.11799144681208 3.5 L 99.11799144681208 0 L 92.11799144681208 -3.5 L 92.11799144681208 -0.5 L 75.78165197340604 -0.5 Z"/><text text-anchor="middle" pointer-events="none" font-size="8px" fill="#000000" x="58.55899572340604" y="3" font-family="sans-serif">ORIGIN</text></g><g class="relationship" transform="translate(-225.33879804207703 385.4948770243359) rotate(455.36397206073013)"><path class="outline" fill="#A5ABB6" stroke="none" d="M 25 0.5 L 44.75129854875034 0.5 L 44.75129854875034 -0.5 L 25 -0.5 Z M 103.94270479875034 0.5 L 123.69400334750068 0.5 L 123.69400334750068 3.5 L 130.69400334750068 0 L 123.69400334750068 -3.5 L 123.69400334750068 -0.5 L 103.94270479875034 -0.5 Z"/><text text-anchor="middle" pointer-events="none" font-size="8px" fill="#000000" x="74.34700167375034" y="3" transform="rotate(180 74.34700167375034 0)" font-family="sans-serif">DESTINATION</text></g></g><g class="layer nodes"><g class="node" transform="translate(321.63794967831274,-223.64269178072672)"><circle class="outline" cx="0" cy="0" r="25" fill="#F79767" stroke="#f36924" stroke-width="2px"/><text text-anchor="middle" pointer-events="none" font-family="sans-serif" dy="1.5625" font-size="25" fill="#FFFFFF"/><text text-anchor="middle" pointer-events="none" x="0" y="5" font-size="10px" fill="#FFFFFF" font-family="sans-serif"> LAX</text></g><g class="node" transform="translate(-239.8934283414506,540.5070875602163)"><circle class="outline" cx="0" cy="0" r="25" fill="#F79767" stroke="#f36924" stroke-width="2px"/><text text-anchor="middle" pointer-events="none" font-family="sans-serif" dy="1.5625" font-size="25" fill="#FFFFFF"/><text text-anchor="middle" pointer-events="none" x="0" y="5" font-size="10px" fill="#FFFFFF" font-family="sans-serif"> DAY</text></g><g class="node" transform="translate(408.79212318715815,-19.600334146600513)"><circle class="outline" cx="0" cy="0" r="25" fill="#57C7E3" stroke="#23b3d7" stroke-width="2px"/><text text-anchor="middle" pointer-events="none" font-family="sans-serif" dy="1.5625" font-size="25" fill="#2A2C34"/><text text-anchor="middle" pointer-events="none" x="0" y="5" font-size="10px" fill="#2A2C34" font-family="sans-serif"> 11/30/20…</text></g><g class="node" transform="translate(427.50403076683637,215.32193043712823)"><circle class="outline" cx="0" cy="0" r="25" fill="#F79767" stroke="#f36924" stroke-width="2px"/><text text-anchor="middle" pointer-events="none" font-family="sans-serif" dy="1.5625" font-size="25" fill="#FFFFFF"/><text text-anchor="middle" pointer-events="none" x="0" y="5" font-size="10px" fill="#FFFFFF" font-family="sans-serif"> IAH</text></g><g class="node" transform="translate(280.5780242766135,321.2735563244346)"><circle class="outline" cx="0" cy="0" r="25" fill="#57C7E3" stroke="#23b3d7" stroke-width="2px"/><text text-anchor="middle" pointer-events="none" font-family="sans-serif" dy="1.5625" font-size="25" fill="#2A2C34"/><text text-anchor="middle" pointer-events="none" x="0" y="5" font-size="10px" fill="#2A2C34" font-family="sans-serif"> 11/29/20…</text></g><g class="node" transform="translate(164.04454635891744,234.41961377645123)"><circle class="outline" cx="0" cy="0" r="25" fill="#F79767" stroke="#f36924" stroke-width="2px"/><text text-anchor="middle" pointer-events="none" font-family="sans-serif" dy="1.5625" font-size="25" fill="#FFFFFF"/><text text-anchor="middle" pointer-events="none" x="0" y="5" font-size="10px" fill="#FFFFFF" font-family="sans-serif"> ORD</text></g><g class="node" transform="translate(6.243988567527098,285.04220033148556)"><circle class="outline" cx="0" cy="0" r="25" fill="#57C7E3" stroke="#23b3d7" stroke-width="2px"/><text text-anchor="middle" pointer-events="none" font-family="sans-serif" dy="1.5625" font-size="25" fill="#2A2C34"/><text text-anchor="middle" pointer-events="none" x="0" y="5" font-size="10px" fill="#2A2C34" font-family="sans-serif"> 11/29/20…</text></g><g class="node" transform="translate(-101.53232619215584,376.7066275475863)"><circle class="outline" cx="0" cy="0" r="25" fill="#F79767" stroke="#f36924" stroke-width="2px"/><text text-anchor="middle" pointer-events="none" font-family="sans-serif" dy="1.5625" font-size="25" fill="#FFFFFF"/><text text-anchor="middle" pointer-events="none" x="0" y="5" font-size="10px" fill="#FFFFFF" font-family="sans-serif"> MSP</text></g><g class="node" transform="translate(-148.51165121747263,487.88690056307206)"><circle class="outline" cx="0" cy="0" r="25" fill="#57C7E3" stroke="#23b3d7" stroke-width="2px"/><text text-anchor="middle" pointer-events="none" font-family="sans-serif" dy="1.5625" font-size="25" fill="#2A2C34"/><text text-anchor="middle" pointer-events="none" x="0" y="5" font-size="10px" fill="#2A2C34" font-family="sans-serif"> 11/16/20…</text></g><g class="node" transform="translate(331.2595089304719,-109.87186434487998)"><circle class="outline" cx="0" cy="0" r="25" fill="#57C7E3" stroke="#23b3d7" stroke-width="2px"/><text text-anchor="middle" pointer-events="none" font-family="sans-serif" dy="1.5625" font-size="25" fill="#2A2C34"/><text text-anchor="middle" pointer-events="none" x="0" y="5" font-size="10px" fill="#2A2C34" font-family="sans-serif"> 11/29/20…</text></g><g class="node" transform="translate(202.14482201519442,-32.08060033356692)"><circle class="outline" cx="0" cy="0" r="25" fill="#F79767" stroke="#f36924" stroke-width="2px"/><text text-anchor="middle" pointer-events="none" font-family="sans-serif" dy="1.5625" font-size="25" fill="#FFFFFF"/><text text-anchor="middle" pointer-events="none" x="0" y="5" font-size="10px" fill="#FFFFFF" font-family="sans-serif"> EWR</text></g><g class="node" transform="translate(169.86985391114348,110.0734419741847)"><circle class="outline" cx="0" cy="0" r="25" fill="#57C7E3" stroke="#23b3d7" stroke-width="2px"/><text text-anchor="middle" pointer-events="none" font-family="sans-serif" dy="1.5625" font-size="25" fill="#2A2C34"/><text text-anchor="middle" pointer-events="none" x="0" y="5" font-size="10px" fill="#2A2C34" font-family="sans-serif"> 11/30/20…</text></g><g class="node" transform="translate(276.05242270348424,-133.36298611401446)"><circle class="outline" cx="0" cy="0" r="25" fill="#57C7E3" stroke="#23b3d7" stroke-width="2px"/><text text-anchor="middle" pointer-events="none" font-family="sans-serif" dy="1.5625" font-size="25" fill="#2A2C34"/><text text-anchor="middle" pointer-events="none" x="0" y="5" font-size="10px" fill="#2A2C34" font-family="sans-serif"> 11/30/20…</text></g><g class="node" transform="translate(441.5384818030502,-108.1986658746856)"><circle class="outline" cx="0" cy="0" r="25" fill="#57C7E3" stroke="#23b3d7" stroke-width="2px"/><text text-anchor="middle" pointer-events="none" font-family="sans-serif" dy="1.5625" font-size="25" fill="#2A2C34"/><text text-anchor="middle" pointer-events="none" x="0" y="5" font-size="10px" fill="#2A2C34" font-family="sans-serif"> 11/29/20…</text></g><g class="node" transform="translate(442.8396679115953,79.27737195964977)"><circle class="outline" cx="0" cy="0" r="25" fill="#F79767" stroke="#f36924" stroke-width="2px"/><text text-anchor="middle" pointer-events="none" font-family="sans-serif" dy="1.5625" font-size="25" fill="#FFFFFF"/><text text-anchor="middle" pointer-events="none" x="0" y="5" font-size="10px" fill="#FFFFFF" font-family="sans-serif"> BOS</text></g><g class="node" transform="translate(305.8015254629466,154.14000848891683)"><circle class="outline" cx="0" cy="0" r="25" fill="#57C7E3" stroke="#23b3d7" stroke-width="2px"/><text text-anchor="middle" pointer-events="none" font-family="sans-serif" dy="1.5625" font-size="25" fill="#2A2C34"/><text text-anchor="middle" pointer-events="none" x="0" y="5" font-size="10px" fill="#2A2C34" font-family="sans-serif"> 11/30/20…</text></g><g class="node" transform="translate(338.28395851187446,305.35055500876655)"><circle class="outline" cx="0" cy="0" r="25" fill="#57C7E3" stroke="#23b3d7" stroke-width="2px"/><text text-anchor="middle" pointer-events="none" font-family="sans-serif" dy="1.5625" font-size="25" fill="#2A2C34"/><text text-anchor="middle" pointer-events="none" x="0" y="5" font-size="10px" fill="#2A2C34" font-family="sans-serif"> 11/30/20…</text></g><g class="node" transform="translate(198.86878827800274,-214.51431879335044)"><circle class="outline" cx="0" cy="0" r="25" fill="#57C7E3" stroke="#23b3d7" stroke-width="2px"/><text text-anchor="middle" pointer-events="none" font-family="sans-serif" dy="1.5625" font-size="25" fill="#2A2C34"/><text text-anchor="middle" pointer-events="none" x="0" y="5" font-size="10px" fill="#2A2C34" font-family="sans-serif"> 11/2/2015</text></g><g class="node" transform="translate(66.86248892316894,-183.19736695155922)"><circle class="outline" cx="0" cy="0" r="25" fill="#F79767" stroke="#f36924" stroke-width="2px"/><text text-anchor="middle" pointer-events="none" font-family="sans-serif" dy="1.5625" font-size="25" fill="#FFFFFF"/><text text-anchor="middle" pointer-events="none" x="0" y="5" font-size="10px" fill="#FFFFFF" font-family="sans-serif"> SMF</text></g><g class="node" transform="translate(134.2200733977242,22.280922625054075)"><circle class="outline" cx="0" cy="0" r="25" fill="#57C7E3" stroke="#23b3d7" stroke-width="2px"/><text text-anchor="middle" pointer-events="none" font-family="sans-serif" dy="1.5625" font-size="25" fill="#2A2C34"/><text text-anchor="middle" pointer-events="none" x="0" y="5" font-size="10px" fill="#2A2C34" font-family="sans-serif"> 11/29/20…</text></g><g class="node" transform="translate(158.24978348991104,-258.63897350887436)"><circle class="outline" cx="0" cy="0" r="25" fill="#57C7E3" stroke="#23b3d7" stroke-width="2px"/><text text-anchor="middle" pointer-events="none" font-family="sans-serif" dy="1.5625" font-size="25" fill="#2A2C34"/><text text-anchor="middle" pointer-events="none" x="0" y="5" font-size="10px" fill="#2A2C34" font-family="sans-serif"> 11/1/2015</text></g><g class="node" transform="translate(176.12128725315918,-315.8102004549354)"><circle class="outline" cx="0" cy="0" r="25" fill="#57C7E3" stroke="#23b3d7" stroke-width="2px"/><text text-anchor="middle" pointer-events="none" font-family="sans-serif" dy="1.5625" font-size="25" fill="#2A2C34"/><text text-anchor="middle" pointer-events="none" x="0" y="5" font-size="10px" fill="#2A2C34" font-family="sans-serif"> 11/4/2015</text></g><g class="node" transform="translate(216.6948663817738,-271.7954223484328)"><circle class="outline" cx="0" cy="0" r="25" fill="#57C7E3" stroke="#23b3d7" stroke-width="2px"/><text text-anchor="middle" pointer-events="none" font-family="sans-serif" dy="1.5625" font-size="25" fill="#2A2C34"/><text text-anchor="middle" pointer-events="none" x="0" y="5" font-size="10px" fill="#2A2C34" font-family="sans-serif"> 11/3/2015</text></g><g class="node" transform="translate(133.464370975816,-133.92433725086295)"><circle class="outline" cx="0" cy="0" r="25" fill="#57C7E3" stroke="#23b3d7" stroke-width="2px"/><text text-anchor="middle" pointer-events="none" font-family="sans-serif" dy="1.5625" font-size="25" fill="#2A2C34"/><text text-anchor="middle" pointer-events="none" x="0" y="5" font-size="10px" fill="#2A2C34" font-family="sans-serif"> 11/29/20…</text></g><g class="node" transform="translate(-48.856256713985275,3.0578451228059236)"><circle class="outline" cx="0" cy="0" r="25" fill="#F79767" stroke="#f36924" stroke-width="2px"/><text text-anchor="middle" pointer-events="none" font-family="sans-serif" dy="1.5625" font-size="25" fill="#FFFFFF"/><text text-anchor="middle" pointer-events="none" x="0" y="5" font-size="10px" fill="#FFFFFF" font-family="sans-serif"> LAS</text></g><g class="node" transform="translate(55.229326659711234,128.25610094846164)"><circle class="outline" cx="0" cy="0" r="25" fill="#57C7E3" stroke="#23b3d7" stroke-width="2px"/><text text-anchor="middle" pointer-events="none" font-family="sans-serif" dy="1.5625" font-size="25" fill="#2A2C34"/><text text-anchor="middle" pointer-events="none" x="0" y="5" font-size="10px" fill="#2A2C34" font-family="sans-serif"> 11/29/20…</text></g><g class="node" transform="translate(75.62224642072044,34.512847066629725)"><circle class="outline" cx="0" cy="0" r="25" fill="#57C7E3" stroke="#23b3d7" stroke-width="2px"/><text text-anchor="middle" pointer-events="none" font-family="sans-serif" dy="1.5625" font-size="25" fill="#2A2C34"/><text text-anchor="middle" pointer-events="none" x="0" y="5" font-size="10px" fill="#2A2C34" font-family="sans-serif"> 11/30/20…</text></g><g class="node" transform="translate(7.247397436092104,164.11127897974535)"><circle class="outline" cx="0" cy="0" r="25" fill="#57C7E3" stroke="#23b3d7" stroke-width="2px"/><text text-anchor="middle" pointer-events="none" font-family="sans-serif" dy="1.5625" font-size="25" fill="#2A2C34"/><text text-anchor="middle" pointer-events="none" x="0" y="5" font-size="10px" fill="#2A2C34" font-family="sans-serif"> 11/29/20…</text></g><g class="node" transform="translate(229.8174885983944,111.70906806893879)"><circle class="outline" cx="0" cy="0" r="25" fill="#57C7E3" stroke="#23b3d7" stroke-width="2px"/><text text-anchor="middle" pointer-events="none" font-family="sans-serif" dy="1.5625" font-size="25" fill="#2A2C34"/><text text-anchor="middle" pointer-events="none" x="0" y="5" font-size="10px" fill="#2A2C34" font-family="sans-serif"> 11/30/20…</text></g><g class="node" transform="translate(295.6879207916853,263.21266966027616)"><circle class="outline" cx="0" cy="0" r="25" fill="#57C7E3" stroke="#23b3d7" stroke-width="2px"/><text text-anchor="middle" pointer-events="none" font-family="sans-serif" dy="1.5625" font-size="25" fill="#2A2C34"/><text text-anchor="middle" pointer-events="none" x="0" y="5" font-size="10px" fill="#2A2C34" font-family="sans-serif"> 11/29/20…</text></g><g class="node" transform="translate(335.4038019437841,206.22927586982024)"><circle class="outline" cx="0" cy="0" r="25" fill="#57C7E3" stroke="#23b3d7" stroke-width="2px"/><text text-anchor="middle" pointer-events="none" font-family="sans-serif" dy="1.5625" font-size="25" fill="#2A2C34"/><text text-anchor="middle" pointer-events="none" x="0" y="5" font-size="10px" fill="#2A2C34" font-family="sans-serif"> 11/29/20…</text></g><g class="node" transform="translate(71.13895084088021,385.2476723313511)"><circle class="outline" cx="0" cy="0" r="25" fill="#57C7E3" stroke="#23b3d7" stroke-width="2px"/><text text-anchor="middle" pointer-events="none" font-family="sans-serif" dy="1.5625" font-size="25" fill="#2A2C34"/><text text-anchor="middle" pointer-events="none" x="0" y="5" font-size="10px" fill="#2A2C34" font-family="sans-serif"> 11/29/20…</text></g><g class="node" transform="translate(42.725910817515654,332.54674388546164)"><circle class="outline" cx="0" cy="0" r="25" fill="#57C7E3" stroke="#23b3d7" stroke-width="2px"/><text text-anchor="middle" pointer-events="none" font-family="sans-serif" dy="1.5625" font-size="25" fill="#2A2C34"/><text text-anchor="middle" pointer-events="none" x="0" y="5" font-size="10px" fill="#2A2C34" font-family="sans-serif"> 11/30/20…</text></g><g class="node" transform="translate(-188.74271628941295,-79.7036234015628)"><circle class="outline" cx="0" cy="0" r="25" fill="#57C7E3" stroke="#23b3d7" stroke-width="2px"/><text text-anchor="middle" pointer-events="none" font-family="sans-serif" dy="1.5625" font-size="25" fill="#2A2C34"/><text text-anchor="middle" pointer-events="none" x="0" y="5" font-size="10px" fill="#2A2C34" font-family="sans-serif"> 11/29/20…</text></g><g class="node" transform="translate(-176.49878020595384,10.501836071385005)"><circle class="outline" cx="0" cy="0" r="25" fill="#F79767" stroke="#f36924" stroke-width="2px"/><text text-anchor="middle" pointer-events="none" font-family="sans-serif" dy="1.5625" font-size="25" fill="#FFFFFF"/><text text-anchor="middle" pointer-events="none" x="0" y="5" font-size="10px" fill="#FFFFFF" font-family="sans-serif"> DEN</text></g><g class="node" transform="translate(-179.4267819296399,203.29285875364747)"><circle class="outline" cx="0" cy="0" r="25" fill="#57C7E3" stroke="#23b3d7" stroke-width="2px"/><text text-anchor="middle" pointer-events="none" font-family="sans-serif" dy="1.5625" font-size="25" fill="#2A2C34"/><text text-anchor="middle" pointer-events="none" x="0" y="5" font-size="10px" fill="#2A2C34" font-family="sans-serif"> 11/29/20…</text></g><g class="node" transform="translate(-95.68004758156145,-141.04125275119728)"><circle class="outline" cx="0" cy="0" r="25" fill="#57C7E3" stroke="#23b3d7" stroke-width="2px"/><text text-anchor="middle" pointer-events="none" font-family="sans-serif" dy="1.5625" font-size="25" fill="#2A2C34"/><text text-anchor="middle" pointer-events="none" x="0" y="5" font-size="10px" fill="#2A2C34" font-family="sans-serif"> 11/30/20…</text></g><g class="node" transform="translate(-3.514973247538474,-46.89954962821589)"><circle class="outline" cx="0" cy="0" r="25" fill="#57C7E3" stroke="#23b3d7" stroke-width="2px"/><text text-anchor="middle" pointer-events="none" font-family="sans-serif" dy="1.5625" font-size="25" fill="#2A2C34"/><text text-anchor="middle" pointer-events="none" x="0" y="5" font-size="10px" fill="#2A2C34" font-family="sans-serif"> 11/30/20…</text></g><g class="node" transform="translate(-101.90848166910442,525.512927855002)"><circle class="outline" cx="0" cy="0" r="25" fill="#57C7E3" stroke="#23b3d7" stroke-width="2px"/><text text-anchor="middle" pointer-events="none" font-family="sans-serif" dy="1.5625" font-size="25" fill="#2A2C34"/><text text-anchor="middle" pointer-events="none" x="0" y="5" font-size="10px" fill="#2A2C34" font-family="sans-serif"> 11/11/20…</text></g><g class="node" transform="translate(-191.79952695834376,446.2865787202525)"><circle class="outline" cx="0" cy="0" r="25" fill="#57C7E3" stroke="#23b3d7" stroke-width="2px"/><text text-anchor="middle" pointer-events="none" font-family="sans-serif" dy="1.5625" font-size="25" fill="#2A2C34"/><text text-anchor="middle" pointer-events="none" x="0" y="5" font-size="10px" fill="#2A2C34" font-family="sans-serif"> 11/25/20…</text></g><g class="node" transform="translate(-251.39822063809606,439.3747970882451)"><circle class="outline" cx="0" cy="0" r="25" fill="#57C7E3" stroke="#23b3d7" stroke-width="2px"/><text text-anchor="middle" pointer-events="none" font-family="sans-serif" dy="1.5625" font-size="25" fill="#2A2C34"/><text text-anchor="middle" pointer-events="none" x="0" y="5" font-size="10px" fill="#2A2C34" font-family="sans-serif"> 11/23/20…</text></g><g class="node" transform="translate(-225.33879804207703,385.4948770243359)"><circle class="outline" cx="0" cy="0" r="25" fill="#57C7E3" stroke="#23b3d7" stroke-width="2px"/><text text-anchor="middle" pointer-events="none" font-family="sans-serif" dy="1.5625" font-size="25" fill="#2A2C34"/><text text-anchor="middle" pointer-events="none" x="0" y="5" font-size="10px" fill="#2A2C34" font-family="sans-serif"> 11/20/20…</text></g></g></svg>