<svg xmlns="http://www.w3.org/2000/svg" width="620.3024291992188" height="635.11279296875" viewBox="-210.9928436279297 -192.6487274169922 620.3024291992188 635.11279296875"><title>Neo4j Graph Visualization</title><desc>Created using Neo4j (http://www.neo4j.com/)</desc><g class="layer relationships"><g class="relationship" transform="translate(138.65526212113048 -36.377733401973614) rotate(471.95461000076796)"><path class="outline" fill="#A5ABB6" stroke="none" d="M 25 0.5 L 65.65241644151243 0.5 L 65.65241644151243 -0.5 L 25 -0.5 Z M 100.09772894151243 0.5 L 140.75014538302486 0.5 L 140.75014538302486 3.5 L 147.75014538302486 0 L 140.75014538302486 -3.5 L 140.75014538302486 -0.5 L 100.09772894151243 -0.5 Z"/><text text-anchor="middle" pointer-events="none" font-size="8px" fill="#000000" x="82.87507269151243" y="3" transform="rotate(180 82.87507269151243 0)" font-family="sans-serif">ORIGIN</text></g><g class="relationship" transform="translate(138.65526212113048 -36.377733401973614) rotate(250.67994988148473)"><path class="outline" fill="#A5ABB6" stroke="none" d="M 25 0.5 L 34.337267435156676 0.5 L 34.337267435156676 -0.5 L 25 -0.5 Z M 93.52867368515668 0.5 L 102.86594112031335 0.5 L 102.86594112031335 3.5 L 109.86594112031335 0 L 102.86594112031335 -3.5 L 102.86594112031335 -0.5 L 93.52867368515668 -0.5 Z"/><text text-anchor="middle" pointer-events="none" font-size="8px" fill="#000000" x="63.932970560156676" y="3" transform="rotate(180 63.932970560156676 0)" font-family="sans-serif">DESTINATION</text></g><g class="relationship" transform="translate(241.84950818311498 204.9597657573838) rotate(205.8018787364186)"><path class="outline" fill="#A5ABB6" stroke="none" d="M 25 0.5 L 72.45730727315276 0.5 L 72.45730727315276 -0.5 L 25 -0.5 Z M 106.90261977315276 0.5 L 154.35992704630553 0.5 L 154.35992704630553 3.5 L 161.35992704630553 0 L 154.35992704630553 -3.5 L 154.35992704630553 -0.5 L 106.90261977315276 -0.5 Z"/><text text-anchor="middle" pointer-events="none" font-size="8px" fill="#000000" x="89.67996352315276" y="3" transform="rotate(180 89.67996352315276 0)" font-family="sans-serif">ORIGIN</text></g><g class="relationship" transform="translate(241.84950818311498 204.9597657573838) rotate(384.55631543239934)"><path class="outline" fill="#A5ABB6" stroke="none" d="M 25 0.5 L 25.100194524779837 0.5 L 25.100194524779837 -0.5 L 25 -0.5 Z M 68.43613202477984 0.5 L 68.53632654955967 0.5 L 68.53632654955967 3.5 L 75.53632654955967 0 L 68.53632654955967 -3.5 L 68.53632654955967 -0.5 L 68.43613202477984 -0.5 Z"/><text text-anchor="middle" pointer-events="none" font-size="8px" fill="#000000" x="46.76816327477984" y="3" font-family="sans-serif">DESTIN…</text></g><g class="relationship" transform="translate(232.466413670473 74.04700984342978) rotate(522.5477025324662)"><path class="outline" fill="#A5ABB6" stroke="none" d="M 25 0.5 L 62.29782038309324 0.5 L 62.29782038309324 -0.5 L 25 -0.5 Z M 96.74313288309324 0.5 L 134.04095326618648 0.5 L 134.04095326618648 3.5 L 141.04095326618648 0 L 134.04095326618648 -3.5 L 134.04095326618648 -0.5 L 96.74313288309324 -0.5 Z"/><text text-anchor="middle" pointer-events="none" font-size="8px" fill="#000000" x="79.52047663309324" y="3" transform="rotate(180 79.52047663309324 0)" font-family="sans-serif">ORIGIN</text></g><g class="relationship" transform="translate(232.466413670473 74.04700984342978) rotate(344.5799930873061)"><path class="outline" fill="#A5ABB6" stroke="none" d="M 25 0.5 L 43.58624273041501 0.5 L 43.58624273041501 -0.5 L 25 -0.5 Z M 102.77764898041501 0.5 L 121.36389171083002 0.5 L 121.36389171083002 3.5 L 128.36389171083002 0 L 121.36389171083002 -3.5 L 121.36389171083002 -0.5 L 102.77764898041501 -0.5 Z"/><text text-anchor="middle" pointer-events="none" font-size="8px" fill="#000000" x="73.18194585541501" y="3" font-family="sans-serif">DESTINATION</text></g><g class="relationship" transform="translate(84.11047447393815 -62.51750900603564) rotate(453.0842540015699)"><path class="outline" fill="#A5ABB6" stroke="none" d="M 25 0.5 L 72.59358145115233 0.5 L 72.59358145115233 -0.5 L 25 -0.5 Z M 107.03889395115233 0.5 L 154.63247540230466 0.5 L 154.63247540230466 3.5 L 161.63247540230466 0 L 154.63247540230466 -3.5 L 154.63247540230466 -0.5 L 107.03889395115233 -0.5 Z"/><text text-anchor="middle" pointer-events="none" font-size="8px" fill="#000000" x="89.81623770115233" y="3" transform="rotate(180 89.81623770115233 0)" font-family="sans-serif">ORIGIN</text></g><g class="relationship" transform="translate(84.11047447393815 -62.51750900603564) rotate(275.6051120868688)"><path class="outline" fill="#A5ABB6" stroke="none" d="M 25 0.5 L 25.64057343073975 0.5 L 25.64057343073975 -0.5 L 25 -0.5 Z M 68.97651093073975 0.5 L 69.6170843614795 0.5 L 69.6170843614795 3.5 L 76.6170843614795 0 L 69.6170843614795 -3.5 L 69.6170843614795 -0.5 L 68.97651093073975 -0.5 Z"/><text text-anchor="middle" pointer-events="none" font-size="8px" fill="#000000" x="47.30854218073975" y="3" font-family="sans-serif">DESTIN…</text></g><g class="relationship" transform="translate(125.58240662113481 277.3782453443133) rotate(251.4523738252384)"><path class="outline" fill="#A5ABB6" stroke="none" d="M 25 0.5 L 60.249901502369696 0.5 L 60.249901502369696 -0.5 L 25 -0.5 Z M 94.6952140023697 0.5 L 129.9451155047394 0.5 L 129.9451155047394 3.5 L 136.9451155047394 0 L 129.9451155047394 -3.5 L 129.9451155047394 -0.5 L 94.6952140023697 -0.5 Z"/><text text-anchor="middle" pointer-events="none" font-size="8px" fill="#000000" x="77.4725577523697" y="3" transform="rotate(180 77.4725577523697 0)" font-family="sans-serif">ORIGIN</text></g><g class="relationship" transform="translate(125.58240662113481 277.3782453443133) rotate(453.37359123306123)"><path class="outline" fill="#A5ABB6" stroke="none" d="M 25 0.5 L 35.06531853101757 0.5 L 35.06531853101757 -0.5 L 25 -0.5 Z M 94.25672478101757 0.5 L 104.32204331203513 0.5 L 104.32204331203513 3.5 L 111.32204331203513 0 L 104.32204331203513 -3.5 L 104.32204331203513 -0.5 L 94.25672478101757 -0.5 Z"/><text text-anchor="middle" pointer-events="none" font-size="8px" fill="#000000" x="64.66102165601757" y="3" transform="rotate(180 64.66102165601757 0)" font-family="sans-serif">DESTINATION</text></g><g class="relationship" transform="translate(195.62119167042638 15.967256698055447) rotate(498.4110377257929)"><path class="outline" fill="#A5ABB6" stroke="none" d="M 25 0.5 L 60.536965596836296 0.5 L 60.536965596836296 -0.5 L 25 -0.5 Z M 94.9822780968363 0.5 L 130.5192436936726 0.5 L 130.5192436936726 3.5 L 137.5192436936726 0 L 130.5192436936726 -3.5 L 130.5192436936726 -0.5 L 94.9822780968363 -0.5 Z"/><text text-anchor="middle" pointer-events="none" font-size="8px" fill="#000000" x="77.7596218468363" y="3" transform="rotate(180 77.7596218468363 0)" font-family="sans-serif">ORIGIN</text></g><g class="relationship" transform="translate(195.62119167042638 15.967256698055447) rotate(312.6274577362419)"><path class="outline" fill="#A5ABB6" stroke="none" d="M 25 0.5 L 44.528715262627074 0.5 L 44.528715262627074 -0.5 L 25 -0.5 Z M 103.72012151262707 0.5 L 123.24883677525415 0.5 L 123.24883677525415 3.5 L 130.24883677525415 0 L 123.24883677525415 -3.5 L 123.24883677525415 -0.5 L 103.72012151262707 -0.5 Z"/><text text-anchor="middle" pointer-events="none" font-size="8px" fill="#000000" x="74.12441838762707" y="3" font-family="sans-serif">DESTINATION</text></g><g class="relationship" transform="translate(-117.35978258424755 95.91456828952414) rotate(368.30106849969053)"><path class="outline" fill="#A5ABB6" stroke="none" d="M 25 0.5 L 76.00505556973157 0.5 L 76.00505556973157 -0.5 L 25 -0.5 Z M 110.45036806973157 0.5 L 161.45542363946313 0.5 L 161.45542363946313 3.5 L 168.45542363946313 0 L 161.45542363946313 -3.5 L 161.45542363946313 -0.5 L 110.45036806973157 -0.5 Z"/><text text-anchor="middle" pointer-events="none" font-size="8px" fill="#000000" x="93.22771181973157" y="3" font-family="sans-serif">ORIGIN</text></g><g class="relationship" transform="translate(-117.35978258424755 95.91456828952414) rotate(479.2163499193297)"><path class="outline" fill="#A5ABB6" stroke="none" d="M 25 0.5 L 33.1119501691027 0.5 L 33.1119501691027 -0.5 L 25 -0.5 Z M 92.3033564191027 0.5 L 100.4153065882054 0.5 L 100.4153065882054 3.5 L 107.4153065882054 0 L 100.4153065882054 -3.5 L 100.4153065882054 -0.5 L 92.3033564191027 -0.5 Z"/><text text-anchor="middle" pointer-events="none" font-size="8px" fill="#000000" x="62.7076532941027" y="3" transform="rotate(180 62.7076532941027 0)" font-family="sans-serif">DESTINATION</text></g><g class="relationship" transform="translate(238.23993712595149 145.11798777433376) rotate(187.38326959983516)"><path class="outline" fill="#A5ABB6" stroke="none" d="M 25 0.5 L 62.049182444540946 0.5 L 62.049182444540946 -0.5 L 25 -0.5 Z M 96.49449494454095 0.5 L 133.5436773890819 0.5 L 133.5436773890819 3.5 L 140.5436773890819 0 L 133.5436773890819 -3.5 L 133.5436773890819 -0.5 L 96.49449494454095 -0.5 Z"/><text text-anchor="middle" pointer-events="none" font-size="8px" fill="#000000" x="79.27183869454095" y="3" transform="rotate(180 79.27183869454095 0)" font-family="sans-serif">ORIGIN</text></g><g class="relationship" transform="translate(238.23993712595149 145.11798777433376) rotate(406.91346766691606)"><path class="outline" fill="#A5ABB6" stroke="none" d="M 25 0.5 L 36.4786023090963 0.5 L 36.4786023090963 -0.5 L 25 -0.5 Z M 95.6700085590963 0.5 L 107.1486108681926 0.5 L 107.1486108681926 3.5 L 114.1486108681926 0 L 107.1486108681926 -3.5 L 107.1486108681926 -0.5 L 95.6700085590963 -0.5 Z"/><text text-anchor="middle" pointer-events="none" font-size="8px" fill="#000000" x="66.0743054340963" y="3" font-family="sans-serif">DESTINATION</text></g><g class="relationship" transform="translate(185.88604633473722 183.89339499945766) rotate(208.2369598479114)"><path class="outline" fill="#A5ABB6" stroke="none" d="M 25 0.5 L 42.73785284781002 0.5 L 42.73785284781002 -0.5 L 25 -0.5 Z M 77.18316534781002 0.5 L 94.92101819562004 0.5 L 94.92101819562004 3.5 L 101.92101819562004 0 L 94.92101819562004 -3.5 L 94.92101819562004 -0.5 L 77.18316534781002 -0.5 Z"/><text text-anchor="middle" pointer-events="none" font-size="8px" fill="#000000" x="59.96050909781002" y="3" transform="rotate(180 59.96050909781002 0)" font-family="sans-serif">ORIGIN</text></g><g class="relationship" transform="translate(185.88604633473722 183.89339499945766) rotate(383.09137027298834)"><path class="outline" fill="#A5ABB6" stroke="none" d="M 25 0.5 L 47.02698129431488 0.5 L 47.02698129431488 -0.5 L 25 -0.5 Z M 106.21838754431488 0.5 L 128.24536883862976 0.5 L 128.24536883862976 3.5 L 135.24536883862976 0 L 128.24536883862976 -3.5 L 128.24536883862976 -0.5 L 106.21838754431488 -0.5 Z"/><text text-anchor="middle" pointer-events="none" font-size="8px" fill="#000000" x="76.62268441931488" y="3" font-family="sans-serif">DESTINATION</text></g><g class="relationship" transform="translate(29.57114015802483 -37.63736608811805) rotate(434.5940192931524)"><path class="outline" fill="#A5ABB6" stroke="none" d="M 25 0.5 L 63.02768502196821 0.5 L 63.02768502196821 -0.5 L 25 -0.5 Z M 97.47299752196821 0.5 L 135.50068254393642 0.5 L 135.50068254393642 3.5 L 142.50068254393642 0 L 135.50068254393642 -3.5 L 135.50068254393642 -0.5 L 97.47299752196821 -0.5 Z"/><text text-anchor="middle" pointer-events="none" font-size="8px" fill="#000000" x="80.25034127196821" y="3" font-family="sans-serif">ORIGIN</text></g><g class="relationship" transform="translate(29.57114015802483 -37.63736608811805) rotate(297.0932161222017)"><path class="outline" fill="#A5ABB6" stroke="none" d="M 25 0.5 L 37.67598778206906 0.5 L 37.67598778206906 -0.5 L 25 -0.5 Z M 96.86739403206906 0.5 L 109.54338181413812 0.5 L 109.54338181413812 3.5 L 116.54338181413812 0 L 109.54338181413812 -3.5 L 109.54338181413812 -0.5 L 96.86739403206906 -0.5 Z"/><text text-anchor="middle" pointer-events="none" font-size="8px" fill="#000000" x="67.27169090706906" y="3" font-family="sans-serif">DESTINATION</text></g><g class="relationship" transform="translate(-77.97355659109272 210.4937735834765) rotate(330.32113028013083)"><path class="outline" fill="#A5ABB6" stroke="none" d="M 25 0.5 L 66.77728788236017 0.5 L 66.77728788236017 -0.5 L 25 -0.5 Z M 101.22260038236017 0.5 L 142.99988826472034 0.5 L 142.99988826472034 3.5 L 149.99988826472034 0 L 142.99988826472034 -3.5 L 142.99988826472034 -0.5 L 101.22260038236017 -0.5 Z"/><text text-anchor="middle" pointer-events="none" font-size="8px" fill="#000000" x="83.99994413236017" y="3" font-family="sans-serif">ORIGIN</text></g><g class="relationship" transform="translate(-77.97355659109272 210.4937735834765) rotate(539.4543753033313)"><path class="outline" fill="#A5ABB6" stroke="none" d="M 25 0.5 L 26.844036602327215 0.5 L 26.844036602327215 -0.5 L 25 -0.5 Z M 70.17997410232721 0.5 L 72.02401070465443 0.5 L 72.02401070465443 3.5 L 79.02401070465443 0 L 72.02401070465443 -3.5 L 72.02401070465443 -0.5 L 70.17997410232721 -0.5 Z"/><text text-anchor="middle" pointer-events="none" font-size="8px" fill="#000000" x="48.512005352327215" y="3" transform="rotate(180 48.512005352327215 0)" font-family="sans-serif">DESTIN…</text></g><g class="relationship" transform="translate(88.88127621455331 -2.9146993121788904) rotate(456.6650651260844)"><path class="outline" fill="#A5ABB6" stroke="none" d="M 25 0.5 L 43.088267114873936 0.5 L 43.088267114873936 -0.5 L 25 -0.5 Z M 77.53357961487393 0.5 L 95.62184672974787 0.5 L 95.62184672974787 3.5 L 102.62184672974787 0 L 95.62184672974787 -3.5 L 95.62184672974787 -0.5 L 77.53357961487393 -0.5 Z"/><text text-anchor="middle" pointer-events="none" font-size="8px" fill="#000000" x="60.310923364873936" y="3" transform="rotate(180 60.310923364873936 0)" font-family="sans-serif">ORIGIN</text></g><g class="relationship" transform="translate(88.88127621455331 -2.9146993121788904) rotate(271.8366932905347)"><path class="outline" fill="#A5ABB6" stroke="none" d="M 25 0.5 L 47.31262311469146 0.5 L 47.31262311469146 -0.5 L 25 -0.5 Z M 106.50402936469146 0.5 L 128.81665247938292 0.5 L 128.81665247938292 3.5 L 135.81665247938292 0 L 128.81665247938292 -3.5 L 128.81665247938292 -0.5 L 106.50402936469146 -0.5 Z"/><text text-anchor="middle" pointer-events="none" font-size="8px" fill="#000000" x="76.90832623969146" y="3" font-family="sans-serif">DESTINATION</text></g><g class="relationship" transform="translate(-58.67911076042162 107.68616122774466) rotate(366.9400683550802)"><path class="outline" fill="#A5ABB6" stroke="none" d="M 25 0.5 L 46.141218747288576 0.5 L 46.141218747288576 -0.5 L 25 -0.5 Z M 80.58653124728858 0.5 L 101.72774999457715 0.5 L 101.72774999457715 3.5 L 108.72774999457715 0 L 101.72774999457715 -3.5 L 101.72774999457715 -0.5 L 80.58653124728858 -0.5 Z"/><text text-anchor="middle" pointer-events="none" font-size="8px" fill="#000000" x="63.363874997288576" y="3" font-family="sans-serif">ORIGIN</text></g><g class="relationship" transform="translate(-58.67911076042162 107.68616122774466) rotate(499.91131080377767)"><path class="outline" fill="#A5ABB6" stroke="none" d="M 25 0.5 L 47.49639846041123 0.5 L 47.49639846041123 -0.5 L 25 -0.5 Z M 106.68780471041123 0.5 L 129.18420317082246 0.5 L 129.18420317082246 3.5 L 136.18420317082246 0 L 129.18420317082246 -3.5 L 129.18420317082246 -0.5 L 106.68780471041123 -0.5 Z"/><text text-anchor="middle" pointer-events="none" font-size="8px" fill="#000000" x="77.09210158541123" y="3" transform="rotate(180 77.09210158541123 0)" font-family="sans-serif">DESTINATION</text></g><g class="relationship" transform="translate(-36.76405807521503 4.730055271134058) rotate(407.0626483307161)"><path class="outline" fill="#A5ABB6" stroke="none" d="M 25 0.5 L 60.628757345164416 0.5 L 60.628757345164416 -0.5 L 25 -0.5 Z M 95.07406984516442 0.5 L 130.70282719032883 0.5 L 130.70282719032883 3.5 L 137.70282719032883 0 L 130.70282719032883 -3.5 L 130.70282719032883 -0.5 L 95.07406984516442 -0.5 Z"/><text text-anchor="middle" pointer-events="none" font-size="8px" fill="#000000" x="77.85141359516442" y="3" font-family="sans-serif">ORIGIN</text></g><g class="relationship" transform="translate(-36.76405807521503 4.730055271134058) rotate(229.48783801488077)"><path class="outline" fill="#A5ABB6" stroke="none" d="M 25 0.5 L 41.823697301710126 0.5 L 41.823697301710126 -0.5 L 25 -0.5 Z M 101.01510355171013 0.5 L 117.83880085342025 0.5 L 117.83880085342025 3.5 L 124.83880085342025 0 L 117.83880085342025 -3.5 L 117.83880085342025 -0.5 L 101.01510355171013 -0.5 Z"/><text text-anchor="middle" pointer-events="none" font-size="8px" fill="#000000" x="71.41940042671013" y="3" transform="rotate(180 71.41940042671013 0)" font-family="sans-serif">DESTINATION</text></g><g class="relationship" transform="translate(66.55485412664207 287.86349097303963) rotate(272.62297972801184)"><path class="outline" fill="#A5ABB6" stroke="none" d="M 25 0.5 L 61.37278687398096 0.5 L 61.37278687398096 -0.5 L 25 -0.5 Z M 95.81809937398096 0.5 L 132.1908862479619 0.5 L 132.1908862479619 3.5 L 139.1908862479619 0 L 132.1908862479619 -3.5 L 132.1908862479619 -0.5 L 95.81809937398096 -0.5 Z"/><text text-anchor="middle" pointer-events="none" font-size="8px" fill="#000000" x="78.59544312398096" y="3" font-family="sans-serif">ORIGIN</text></g><g class="relationship" transform="translate(66.55485412664207 287.86349097303963) rotate(427.898272323598)"><path class="outline" fill="#A5ABB6" stroke="none" d="M 25 0.5 L 34.685309335700424 0.5 L 34.685309335700424 -0.5 L 25 -0.5 Z M 93.87671558570042 0.5 L 103.56202492140085 0.5 L 103.56202492140085 3.5 L 110.56202492140085 0 L 103.56202492140085 -3.5 L 103.56202492140085 -0.5 L 93.87671558570042 -0.5 Z"/><text text-anchor="middle" pointer-events="none" font-size="8px" fill="#000000" x="64.28101246070042" y="3" font-family="sans-serif">DESTINATION</text></g><g class="relationship" transform="translate(-18.970810595325077 220.9149189069945) rotate(313.78541431374674)"><path class="outline" fill="#A5ABB6" stroke="none" d="M 25 0.5 L 46.50645863546258 0.5 L 46.50645863546258 -0.5 L 25 -0.5 Z M 80.95177113546258 0.5 L 102.45822977092516 0.5 L 102.45822977092516 3.5 L 109.45822977092516 0 L 102.45822977092516 -3.5 L 102.45822977092516 -0.5 L 80.95177113546258 -0.5 Z"/><text text-anchor="middle" pointer-events="none" font-size="8px" fill="#000000" x="63.72911488546258" y="3" font-family="sans-serif">ORIGIN</text></g><g class="relationship" transform="translate(-18.970810595325077 220.9149189069945) rotate(183.3107726776845)"><path class="outline" fill="#A5ABB6" stroke="none" d="M 25 0.5 L 48.55158814948501 0.5 L 48.55158814948501 -0.5 L 25 -0.5 Z M 107.74299439948501 0.5 L 131.29458254897003 0.5 L 131.29458254897003 3.5 L 138.29458254897003 0 L 131.29458254897003 -3.5 L 131.29458254897003 -0.5 L 107.74299439948501 -0.5 Z"/><text text-anchor="middle" pointer-events="none" font-size="8px" fill="#000000" x="78.14729127448501" y="3" transform="rotate(180 78.14729127448501 0)" font-family="sans-serif">DESTINATION</text></g><g class="relationship" transform="translate(-98.19737389413608 152.7024363419945) rotate(350.49018649212735)"><path class="outline" fill="#A5ABB6" stroke="none" d="M 25 0.5 L 66.61063804098868 0.5 L 66.61063804098868 -0.5 L 25 -0.5 Z M 101.05595054098868 0.5 L 142.66658858197735 0.5 L 142.66658858197735 3.5 L 149.66658858197735 0 L 142.66658858197735 -3.5 L 142.66658858197735 -0.5 L 101.05595054098868 -0.5 Z"/><text text-anchor="middle" pointer-events="none" font-size="8px" fill="#000000" x="83.83329429098868" y="3" font-family="sans-serif">ORIGIN</text></g><g class="relationship" transform="translate(-98.19737389413608 152.7024363419945) rotate(504.9506102250997)"><path class="outline" fill="#A5ABB6" stroke="none" d="M 25 0.5 L 26.010635367890842 0.5 L 26.010635367890842 -0.5 L 25 -0.5 Z M 69.34657286789084 0.5 L 70.35720823578168 0.5 L 70.35720823578168 3.5 L 77.35720823578168 0 L 70.35720823578168 -3.5 L 70.35720823578168 -0.5 L 69.34657286789084 -0.5 Z"/><text text-anchor="middle" pointer-events="none" font-size="8px" fill="#000000" x="47.67860411789084" y="3" transform="rotate(180 47.67860411789084 0)" font-family="sans-serif">DESTIN…</text></g><g class="relationship" transform="translate(-57.359110022084124 266.8158587861242) rotate(312.5911288005133)"><path class="outline" fill="#A5ABB6" stroke="none" d="M 25 0.5 L 76.37790435249788 0.5 L 76.37790435249788 -0.5 L 25 -0.5 Z M 110.82321685249788 0.5 L 162.20112120499576 0.5 L 162.20112120499576 3.5 L 169.20112120499576 0 L 162.20112120499576 -3.5 L 162.20112120499576 -0.5 L 110.82321685249788 -0.5 Z"/><text text-anchor="middle" pointer-events="none" font-size="8px" fill="#000000" x="93.60056060249788" y="3" font-family="sans-serif">ORIGIN</text></g><g class="relationship" transform="translate(-57.359110022084124 266.8158587861242) rotate(203.93895696254333)"><path class="outline" fill="#A5ABB6" stroke="none" d="M 25 0.5 L 35.08630056251988 0.5 L 35.08630056251988 -0.5 L 25 -0.5 Z M 94.27770681251988 0.5 L 104.36400737503976 0.5 L 104.36400737503976 3.5 L 111.36400737503976 0 L 104.36400737503976 -3.5 L 104.36400737503976 -0.5 L 94.27770681251988 -0.5 Z"/><text text-anchor="middle" pointer-events="none" font-size="8px" fill="#000000" x="64.68200368751988" y="3" transform="rotate(180 64.68200368751988 0)" font-family="sans-serif">DESTINATION</text></g><g class="relationship" transform="translate(195.71589980141948 243.23322687193155) rotate(224.4631614791125)"><path class="outline" fill="#A5ABB6" stroke="none" d="M 25 0.5 L 64.50006332879167 0.5 L 64.50006332879167 -0.5 L 25 -0.5 Z M 98.94537582879167 0.5 L 138.44543915758334 0.5 L 138.44543915758334 3.5 L 145.44543915758334 0 L 138.44543915758334 -3.5 L 138.44543915758334 -0.5 L 98.94537582879167 -0.5 Z"/><text text-anchor="middle" pointer-events="none" font-size="8px" fill="#000000" x="81.72271957879167" y="3" transform="rotate(180 81.72271957879167 0)" font-family="sans-serif">ORIGIN</text></g><g class="relationship" transform="translate(195.71589980141948 243.23322687193155) rotate(361.4607115572982)"><path class="outline" fill="#A5ABB6" stroke="none" d="M 25 0.5 L 35.71503227233737 0.5 L 35.71503227233737 -0.5 L 25 -0.5 Z M 94.90643852233737 0.5 L 105.62147079467474 0.5 L 105.62147079467474 3.5 L 112.62147079467474 0 L 105.62147079467474 -3.5 L 105.62147079467474 -0.5 L 94.90643852233737 -0.5 Z"/><text text-anchor="middle" pointer-events="none" font-size="8px" fill="#000000" x="65.31073539733737" y="3" font-family="sans-serif">DESTINATION</text></g><g class="relationship" transform="translate(-39.526403859410856 164.54551030260967) rotate(340.2875273358869)"><path class="outline" fill="#A5ABB6" stroke="none" d="M 25 0.5 L 39.61066444854088 0.5 L 39.61066444854088 -0.5 L 25 -0.5 Z M 74.05597694854089 0.5 L 88.66664139708176 0.5 L 88.66664139708176 3.5 L 95.66664139708176 0 L 88.66664139708176 -3.5 L 88.66664139708176 -0.5 L 74.05597694854089 -0.5 Z"/><text text-anchor="middle" pointer-events="none" font-size="8px" fill="#000000" x="56.83332069854088" y="3" font-family="sans-serif">ORIGIN</text></g><g class="relationship" transform="translate(-39.526403859410856 164.54551030260967) rotate(521.7643381313424)"><path class="outline" fill="#A5ABB6" stroke="none" d="M 25 0.5 L 41.904205769719525 0.5 L 41.904205769719525 -0.5 L 25 -0.5 Z M 101.09561201971952 0.5 L 117.99981778943905 0.5 L 117.99981778943905 3.5 L 124.99981778943905 0 L 117.99981778943905 -3.5 L 117.99981778943905 -0.5 L 101.09561201971952 -0.5 Z"/><text text-anchor="middle" pointer-events="none" font-size="8px" fill="#000000" x="71.49990889471952" y="3" transform="rotate(180 71.49990889471952 0)" font-family="sans-serif">DESTINATION</text></g></g><g class="layer nodes"><g class="node" transform="translate(74.06882731239781,123.84462823507614)"><circle class="outline" cx="0" cy="0" r="25" fill="#ECB5C9" stroke="#da7298" stroke-width="2px"/><text text-anchor="middle" pointer-events="none" font-family="sans-serif" dy="1.5625" font-size="25" fill="#2A2C34"/><text text-anchor="middle" pointer-events="none" x="0" y="5" font-size="10px" fill="#2A2C34" font-family="sans-serif"> LAX</text></g><g class="node" transform="translate(94.03558747593775,-163.64873052553267)"><circle class="outline" cx="0" cy="0" r="25" fill="#ECB5C9" stroke="#da7298" stroke-width="2px"/><text text-anchor="middle" pointer-events="none" font-family="sans-serif" dy="1.5625" font-size="25" fill="#2A2C34"/><text text-anchor="middle" pointer-events="none" x="0" y="5" font-size="10px" fill="#2A2C34" font-family="sans-serif"> SMF</text></g><g class="node" transform="translate(333.2926490980685,246.74139970924887)"><circle class="outline" cx="0" cy="0" r="25" fill="#ECB5C9" stroke="#da7298" stroke-width="2px"/><text text-anchor="middle" pointer-events="none" font-family="sans-serif" dy="1.5625" font-size="25" fill="#2A2C34"/><text text-anchor="middle" pointer-events="none" x="0" y="5" font-size="10px" fill="#2A2C34" font-family="sans-serif"> FAT</text></g><g class="node" transform="translate(380.3096066097378,33.268662865964835)"><circle class="outline" cx="0" cy="0" r="25" fill="#ECB5C9" stroke="#da7298" stroke-width="2px"/><text text-anchor="middle" pointer-events="none" font-family="sans-serif" dy="1.5625" font-size="25" fill="#2A2C34"/><text text-anchor="middle" pointer-events="none" x="0" y="5" font-size="10px" fill="#2A2C34" font-family="sans-serif"> LAS</text></g><g class="node" transform="translate(117.56036439982007,413.4640503769023)"><circle class="outline" cx="0" cy="0" r="25" fill="#ECB5C9" stroke="#da7298" stroke-width="2px"/><text text-anchor="middle" pointer-events="none" font-family="sans-serif" dy="1.5625" font-size="25" fill="#2A2C34"/><text text-anchor="middle" pointer-events="none" x="0" y="5" font-size="10px" fill="#2A2C34" font-family="sans-serif"> TUS</text></g><g class="node" transform="translate(300.76015184591466,-98.26058742624988)"><circle class="outline" cx="0" cy="0" r="25" fill="#ECB5C9" stroke="#da7298" stroke-width="2px"/><text text-anchor="middle" pointer-events="none" font-family="sans-serif" dy="1.5625" font-size="25" fill="#2A2C34"/><text text-anchor="middle" pointer-events="none" x="0" y="5" font-size="10px" fill="#2A2C34" font-family="sans-serif"> IAH</text></g><g class="node" transform="translate(-181.99285054321885,211.48437379710225)"><circle class="outline" cx="0" cy="0" r="25" fill="#ECB5C9" stroke="#da7298" stroke-width="2px"/><text text-anchor="middle" pointer-events="none" font-family="sans-serif" dy="1.5625" font-size="25" fill="#2A2C34"/><text text-anchor="middle" pointer-events="none" x="0" y="5" font-size="10px" fill="#2A2C34" font-family="sans-serif"> ABQ</text></g><g class="node" transform="translate(-134.10075797005226,-109.18760400420976)"><circle class="outline" cx="0" cy="0" r="25" fill="#ECB5C9" stroke="#da7298" stroke-width="2px"/><text text-anchor="middle" pointer-events="none" font-family="sans-serif" dy="1.5625" font-size="25" fill="#2A2C34"/><text text-anchor="middle" pointer-events="none" x="0" y="5" font-size="10px" fill="#2A2C34" font-family="sans-serif"> EWR</text></g><g class="node" transform="translate(138.65526212113048,-36.377733401973614)"><circle class="outline" cx="0" cy="0" r="25" fill="#4C8EDA" stroke="#2870c2" stroke-width="2px"/><text text-anchor="middle" pointer-events="none" font-family="sans-serif" dy="1.5625" font-size="25" fill="#FFFFFF"/><text text-anchor="middle" pointer-events="none" x="0" y="5" font-size="10px" fill="#FFFFFF" font-family="sans-serif"> 11/4/2015</text></g><g class="node" transform="translate(241.84950818311498,204.9597657573838)"><circle class="outline" cx="0" cy="0" r="25" fill="#4C8EDA" stroke="#2870c2" stroke-width="2px"/><text text-anchor="middle" pointer-events="none" font-family="sans-serif" dy="1.5625" font-size="25" fill="#FFFFFF"/><text text-anchor="middle" pointer-events="none" x="0" y="5" font-size="10px" fill="#FFFFFF" font-family="sans-serif"> 11/4/2015</text></g><g class="node" transform="translate(232.466413670473,74.04700984342978)"><circle class="outline" cx="0" cy="0" r="25" fill="#4C8EDA" stroke="#2870c2" stroke-width="2px"/><text text-anchor="middle" pointer-events="none" font-family="sans-serif" dy="1.5625" font-size="25" fill="#FFFFFF"/><text text-anchor="middle" pointer-events="none" x="0" y="5" font-size="10px" fill="#FFFFFF" font-family="sans-serif"> 11/29/20…</text></g><g class="node" transform="translate(84.11047447393815,-62.51750900603564)"><circle class="outline" cx="0" cy="0" r="25" fill="#4C8EDA" stroke="#2870c2" stroke-width="2px"/><text text-anchor="middle" pointer-events="none" font-family="sans-serif" dy="1.5625" font-size="25" fill="#FFFFFF"/><text text-anchor="middle" pointer-events="none" x="0" y="5" font-size="10px" fill="#FFFFFF" font-family="sans-serif"> 11/2/2015</text></g><g class="node" transform="translate(125.58240662113481,277.3782453443133)"><circle class="outline" cx="0" cy="0" r="25" fill="#4C8EDA" stroke="#2870c2" stroke-width="2px"/><text text-anchor="middle" pointer-events="none" font-family="sans-serif" dy="1.5625" font-size="25" fill="#FFFFFF"/><text text-anchor="middle" pointer-events="none" x="0" y="5" font-size="10px" fill="#FFFFFF" font-family="sans-serif"> 11/1/2015</text></g><g class="node" transform="translate(195.62119167042638,15.967256698055447)"><circle class="outline" cx="0" cy="0" r="25" fill="#4C8EDA" stroke="#2870c2" stroke-width="2px"/><text text-anchor="middle" pointer-events="none" font-family="sans-serif" dy="1.5625" font-size="25" fill="#FFFFFF"/><text text-anchor="middle" pointer-events="none" x="0" y="5" font-size="10px" fill="#FFFFFF" font-family="sans-serif"> 11/30/20…</text></g><g class="node" transform="translate(-117.35978258424755,95.91456828952414)"><circle class="outline" cx="0" cy="0" r="25" fill="#4C8EDA" stroke="#2870c2" stroke-width="2px"/><text text-anchor="middle" pointer-events="none" font-family="sans-serif" dy="1.5625" font-size="25" fill="#FFFFFF"/><text text-anchor="middle" pointer-events="none" x="0" y="5" font-size="10px" fill="#FFFFFF" font-family="sans-serif"> 11/2/2015</text></g><g class="node" transform="translate(238.23993712595149,145.11798777433376)"><circle class="outline" cx="0" cy="0" r="25" fill="#4C8EDA" stroke="#2870c2" stroke-width="2px"/><text text-anchor="middle" pointer-events="none" font-family="sans-serif" dy="1.5625" font-size="25" fill="#FFFFFF"/><text text-anchor="middle" pointer-events="none" x="0" y="5" font-size="10px" fill="#FFFFFF" font-family="sans-serif"> 11/3/2015</text></g><g class="node" transform="translate(185.88604633473722,183.89339499945766)"><circle class="outline" cx="0" cy="0" r="25" fill="#4C8EDA" stroke="#2870c2" stroke-width="2px"/><text text-anchor="middle" pointer-events="none" font-family="sans-serif" dy="1.5625" font-size="25" fill="#FFFFFF"/><text text-anchor="middle" pointer-events="none" x="0" y="5" font-size="10px" fill="#FFFFFF" font-family="sans-serif"> 11/1/2015</text></g><g class="node" transform="translate(29.57114015802483,-37.63736608811805)"><circle class="outline" cx="0" cy="0" r="25" fill="#4C8EDA" stroke="#2870c2" stroke-width="2px"/><text text-anchor="middle" pointer-events="none" font-family="sans-serif" dy="1.5625" font-size="25" fill="#FFFFFF"/><text text-anchor="middle" pointer-events="none" x="0" y="5" font-size="10px" fill="#FFFFFF" font-family="sans-serif"> 11/1/2015</text></g><g class="node" transform="translate(-77.97355659109272,210.4937735834765)"><circle class="outline" cx="0" cy="0" r="25" fill="#4C8EDA" stroke="#2870c2" stroke-width="2px"/><text text-anchor="middle" pointer-events="none" font-family="sans-serif" dy="1.5625" font-size="25" fill="#FFFFFF"/><text text-anchor="middle" pointer-events="none" x="0" y="5" font-size="10px" fill="#FFFFFF" font-family="sans-serif"> 11/3/2015</text></g><g class="node" transform="translate(88.88127621455331,-2.9146993121788904)"><circle class="outline" cx="0" cy="0" r="25" fill="#4C8EDA" stroke="#2870c2" stroke-width="2px"/><text text-anchor="middle" pointer-events="none" font-family="sans-serif" dy="1.5625" font-size="25" fill="#FFFFFF"/><text text-anchor="middle" pointer-events="none" x="0" y="5" font-size="10px" fill="#FFFFFF" font-family="sans-serif"> 11/3/2015</text></g><g class="node" transform="translate(-58.67911076042162,107.68616122774466)"><circle class="outline" cx="0" cy="0" r="25" fill="#4C8EDA" stroke="#2870c2" stroke-width="2px"/><text text-anchor="middle" pointer-events="none" font-family="sans-serif" dy="1.5625" font-size="25" fill="#FFFFFF"/><text text-anchor="middle" pointer-events="none" x="0" y="5" font-size="10px" fill="#FFFFFF" font-family="sans-serif"> 11/1/2015</text></g><g class="node" transform="translate(-36.76405807521503,4.730055271134058)"><circle class="outline" cx="0" cy="0" r="25" fill="#4C8EDA" stroke="#2870c2" stroke-width="2px"/><text text-anchor="middle" pointer-events="none" font-family="sans-serif" dy="1.5625" font-size="25" fill="#FFFFFF"/><text text-anchor="middle" pointer-events="none" x="0" y="5" font-size="10px" fill="#FFFFFF" font-family="sans-serif"> 11/30/20…</text></g><g class="node" transform="translate(66.55485412664207,287.86349097303963)"><circle class="outline" cx="0" cy="0" r="25" fill="#4C8EDA" stroke="#2870c2" stroke-width="2px"/><text text-anchor="middle" pointer-events="none" font-family="sans-serif" dy="1.5625" font-size="25" fill="#FFFFFF"/><text text-anchor="middle" pointer-events="none" x="0" y="5" font-size="10px" fill="#FFFFFF" font-family="sans-serif"> 11/2/2015</text></g><g class="node" transform="translate(-18.970810595325077,220.9149189069945)"><circle class="outline" cx="0" cy="0" r="25" fill="#4C8EDA" stroke="#2870c2" stroke-width="2px"/><text text-anchor="middle" pointer-events="none" font-family="sans-serif" dy="1.5625" font-size="25" fill="#FFFFFF"/><text text-anchor="middle" pointer-events="none" x="0" y="5" font-size="10px" fill="#FFFFFF" font-family="sans-serif"> 11/1/2015</text></g><g class="node" transform="translate(-98.19737389413608,152.7024363419945)"><circle class="outline" cx="0" cy="0" r="25" fill="#4C8EDA" stroke="#2870c2" stroke-width="2px"/><text text-anchor="middle" pointer-events="none" font-family="sans-serif" dy="1.5625" font-size="25" fill="#FFFFFF"/><text text-anchor="middle" pointer-events="none" x="0" y="5" font-size="10px" fill="#FFFFFF" font-family="sans-serif"> 11/2/2015</text></g><g class="node" transform="translate(-57.359110022084124,266.8158587861242)"><circle class="outline" cx="0" cy="0" r="25" fill="#4C8EDA" stroke="#2870c2" stroke-width="2px"/><text text-anchor="middle" pointer-events="none" font-family="sans-serif" dy="1.5625" font-size="25" fill="#FFFFFF"/><text text-anchor="middle" pointer-events="none" x="0" y="5" font-size="10px" fill="#FFFFFF" font-family="sans-serif"> 11/4/2015</text></g><g class="node" transform="translate(195.71589980141948,243.23322687193155)"><circle class="outline" cx="0" cy="0" r="25" fill="#4C8EDA" stroke="#2870c2" stroke-width="2px"/><text text-anchor="middle" pointer-events="none" font-family="sans-serif" dy="1.5625" font-size="25" fill="#FFFFFF"/><text text-anchor="middle" pointer-events="none" x="0" y="5" font-size="10px" fill="#FFFFFF" font-family="sans-serif"> 11/2/2015</text></g><g class="node" transform="translate(-39.526403859410856,164.54551030260967)"><circle class="outline" cx="0" cy="0" r="25" fill="#4C8EDA" stroke="#2870c2" stroke-width="2px"/><text text-anchor="middle" pointer-events="none" font-family="sans-serif" dy="1.5625" font-size="25" fill="#FFFFFF"/><text text-anchor="middle" pointer-events="none" x="0" y="5" font-size="10px" fill="#FFFFFF" font-family="sans-serif"> 11/3/2015</text></g></g></svg>